<svg width="219" height="60" viewBox="0 0 219 60" fill="none" xmlns="http://www.w3.org/2000/svg">
<path d="M44.2703 58.7608C46.953 58.5789 49.0445 58.2455 50.5298 57.7605C52.0152 57.2755 53.1519 56.5177 53.94 55.4871C54.7281 54.4564 55.2131 53.1075 55.395 51.4403C55.5769 49.7732 55.6678 47.6664 55.6678 45.1202V14.7319C55.6678 12.1856 55.5769 10.0789 55.395 8.41172C55.2131 6.74454 54.7281 5.39563 53.94 4.365C53.1519 3.33438 51.9848 2.57656 50.4238 2.09156C48.8627 1.60656 46.7256 1.27312 44.043 1.09125V0C47.1803 0.12125 50.2116 0.212187 53.1519 0.272812C56.0922 0.333437 59.1386 0.36375 62.2608 0.36375C64.7161 0.36375 67.1866 0.333437 69.6419 0.272812C72.0972 0.212187 74.5222 0.12125 76.9169 0V1.09125C74.31 1.27312 72.2639 1.60656 70.7635 2.09156C69.2781 2.57656 68.1566 3.33438 67.4139 4.365C66.6713 5.39563 66.2014 6.74454 66.0195 8.41172C65.8377 10.0789 65.7467 12.1856 65.7467 14.7319V45.1202C65.7467 47.6664 65.8377 49.7732 66.0195 51.4403C66.2014 53.1075 66.6864 54.4564 67.4745 55.4871C68.2627 56.5177 69.4297 57.2755 70.9908 57.7605C72.5519 58.2455 74.7192 58.5789 77.4777 58.7608V59.8521C74.6435 59.7308 71.8092 59.6399 68.975 59.5793C66.1408 59.5186 63.3066 59.4883 60.4724 59.4883C57.7139 59.4883 54.9858 59.5186 52.3031 59.5793C49.6205 59.6399 46.9378 59.7308 44.2552 59.8521V58.7608H44.2703Z" fill="#EC000A"/>
<path d="M0.227343 58.7608C2.91 58.5789 5.00156 58.2455 6.48688 57.7605C7.97219 57.2755 9.10891 56.5177 9.89704 55.4871C10.6852 54.4564 11.1702 53.1075 11.352 51.4403C11.5339 49.7732 11.6248 47.6664 11.6248 45.1202V14.7319C11.6248 12.1856 11.5339 10.0789 11.352 8.41172C11.1702 6.74454 10.6852 5.39563 9.89704 4.365C9.10891 3.33438 7.94188 2.57656 6.38079 2.09156C4.81969 1.60656 2.68266 1.27312 0 1.09125V0C3.13735 0.12125 6.1686 0.212187 9.10891 0.272812C12.0492 0.333437 15.0956 0.36375 18.2178 0.36375C20.6731 0.36375 23.1436 0.333437 25.5989 0.272812C28.0542 0.212187 30.4792 0.12125 32.8739 0V1.09125C30.267 1.27312 28.221 1.60656 26.7205 2.09156C25.2352 2.57656 24.1136 3.33438 23.371 4.365C22.6283 5.39563 22.1585 6.74454 21.9766 8.41172C21.7947 10.0789 21.7038 12.1856 21.7038 14.7319V45.1202C21.7038 47.6664 21.7947 49.7732 21.9766 51.4403C22.1585 53.1075 22.6435 54.4564 23.4316 55.4871C24.2197 56.5177 25.3867 57.2755 26.9478 57.7605C28.5089 58.2455 30.6763 58.5789 33.4347 58.7608V59.8521C30.6005 59.7308 27.7663 59.6399 24.932 59.5793C22.0978 59.5186 19.2636 59.4883 16.4294 59.4883C13.6709 59.4883 10.9428 59.5186 8.26016 59.5793C5.5775 59.6399 2.89485 59.7308 0.212188 59.8521V58.7608H0.227343Z" fill="#EC000A"/>
<path d="M213.692 43.9936V48.4642H201.725V46.9212H201.942C202.285 46.9212 202.575 46.8751 202.813 46.7828C203.05 46.6905 203.169 46.4992 203.169 46.2091V36.6745C203.169 36.3844 203.05 36.1932 202.813 36.1008C202.575 36.0085 202.285 35.9624 201.942 35.9624H201.725V34.4194H213.297V38.3955H211.536L211.338 36.8921C211.312 36.6547 211.22 36.4767 211.061 36.358C210.903 36.2261 210.672 36.1404 210.369 36.1008C210.079 36.0481 209.716 36.0217 209.281 36.0217H206.789V46.8619H209.34C209.736 46.8619 210.072 46.8553 210.349 46.8421C210.626 46.8157 210.857 46.7696 211.042 46.7036C211.226 46.6245 211.365 46.5322 211.457 46.4267C211.549 46.308 211.609 46.163 211.635 45.9915L211.912 43.9936H213.692ZM206.393 40.5517C206.96 40.4989 207.527 40.4593 208.094 40.433C208.661 40.3934 209.222 40.3538 209.776 40.3143C210.343 40.2615 210.91 40.222 211.477 40.1956V42.3122C210.91 42.2594 210.343 42.2199 209.776 42.1935C209.222 42.1539 208.661 42.1144 208.094 42.0748C207.527 42.0353 206.96 41.9957 206.393 41.9561V40.5517Z" fill="white"/>
<path d="M191.259 46.2091V36.0415H190.646C190.105 36.0415 189.676 36.0745 189.36 36.1404C189.043 36.2063 188.812 36.3118 188.667 36.4569C188.522 36.602 188.437 36.7932 188.41 37.0306L188.193 39.6219H186.393V34.4194H199.745V39.6219H197.945L197.727 37.0306C197.714 36.7932 197.635 36.602 197.49 36.4569C197.345 36.3118 197.107 36.2063 196.778 36.1404C196.461 36.0745 196.033 36.0415 195.492 36.0415H194.879V46.2091C194.879 46.4992 195.004 46.6905 195.255 46.7828C195.505 46.8751 195.808 46.9212 196.165 46.9212H196.521V48.4642H189.617V46.9212H189.973C190.329 46.9212 190.632 46.8751 190.883 46.7828C191.134 46.6905 191.259 46.4992 191.259 46.2091Z" fill="white"/>
<path d="M175.393 43.2024C175.393 43.9013 175.459 44.4947 175.591 44.9827C175.723 45.4574 175.914 45.8399 176.165 46.13C176.428 46.4201 176.745 46.6311 177.114 46.763C177.483 46.8949 177.912 46.9608 178.4 46.9608C178.848 46.9608 179.257 46.8949 179.626 46.763C179.996 46.6179 180.312 46.4003 180.576 46.1102C180.84 45.8069 181.044 45.4179 181.189 44.9431C181.334 44.4552 181.407 43.8749 181.407 43.2024V36.3382C181.407 36.2723 181.367 36.2195 181.288 36.18C181.209 36.1272 181.103 36.0877 180.971 36.0613C180.853 36.0349 180.714 36.0151 180.556 36.0019C180.411 35.9756 180.259 35.9624 180.101 35.9624H179.883V34.4194H184.512V35.9624H184.315C184.077 35.9624 183.866 35.9888 183.682 36.0415C183.497 36.0811 183.352 36.1602 183.246 36.2789C183.141 36.3844 183.088 36.5426 183.088 36.7536V43.1826C183.088 44.198 182.95 45.0684 182.673 45.7937C182.396 46.5058 182.007 47.0927 181.506 47.5542C181.004 48.0026 180.418 48.3323 179.745 48.5433C179.086 48.7543 178.374 48.8598 177.609 48.8598C176.738 48.8598 175.94 48.7477 175.215 48.5235C174.503 48.3125 173.89 47.9828 173.375 47.5345C172.861 47.0729 172.465 46.4861 172.189 45.7739C171.912 45.0486 171.773 44.1914 171.773 43.2024V36.6745C171.773 36.3844 171.654 36.1932 171.417 36.1008C171.193 36.0085 170.903 35.9624 170.547 35.9624H170.329V34.4194H176.857V35.9624H176.639C176.507 35.9624 176.369 35.969 176.224 35.9822C176.079 35.9822 175.94 35.9953 175.809 36.0217C175.69 36.0349 175.591 36.0547 175.512 36.0811C175.433 36.0943 175.393 36.1206 175.393 36.1602V43.2024Z" fill="white"/>
<path d="M159.964 46.2091V36.0415H159.351C158.81 36.0415 158.381 36.0745 158.065 36.1404C157.748 36.2063 157.518 36.3118 157.373 36.4569C157.227 36.602 157.142 36.7932 157.115 37.0306L156.898 39.6219H155.098V34.4194H168.45V39.6219H166.65L166.432 37.0306C166.419 36.7932 166.34 36.602 166.195 36.4569C166.05 36.3118 165.813 36.2063 165.483 36.1404C165.166 36.0745 164.738 36.0415 164.197 36.0415H163.584V46.2091C163.584 46.4992 163.709 46.6905 163.96 46.7828C164.21 46.8751 164.514 46.9212 164.87 46.9212H165.226V48.4642H158.322V46.9212H158.678C159.034 46.9212 159.337 46.8751 159.588 46.7828C159.839 46.6905 159.964 46.4992 159.964 46.2091Z" fill="white"/>
<path d="M147.94 46.2091V36.6745C147.94 36.3844 147.821 36.1932 147.584 36.1008C147.359 36.0085 147.069 35.9624 146.713 35.9624H146.377V34.4194H153.122V35.9624H152.786C152.43 35.9624 152.133 36.0085 151.896 36.1008C151.672 36.1932 151.56 36.3844 151.56 36.6745V46.2091C151.56 46.4992 151.672 46.6905 151.896 46.7828C152.133 46.8751 152.43 46.9212 152.786 46.9212H153.122V48.4642H146.377V46.9212H146.713C147.069 46.9212 147.359 46.8751 147.584 46.7828C147.821 46.6905 147.94 46.4992 147.94 46.2091Z" fill="white"/>
<path d="M135.913 46.2091V36.0415H135.3C134.759 36.0415 134.331 36.0745 134.014 36.1404C133.698 36.2063 133.467 36.3118 133.322 36.4569C133.177 36.602 133.091 36.7932 133.065 37.0306L132.847 39.6219H131.047V34.4194H144.399V39.6219H142.599L142.382 37.0306C142.368 36.7932 142.289 36.602 142.144 36.4569C141.999 36.3118 141.762 36.2063 141.432 36.1404C141.116 36.0745 140.687 36.0415 140.146 36.0415H139.533V46.2091C139.533 46.4992 139.658 46.6905 139.909 46.7828C140.159 46.8751 140.463 46.9212 140.819 46.9212H141.175V48.4642H134.271V46.9212H134.627C134.983 46.9212 135.287 46.8751 135.537 46.7828C135.788 46.6905 135.913 46.4992 135.913 46.2091Z" fill="white"/>
<path d="M123.937 47.2576C124.517 47.2576 124.985 47.1983 125.341 47.0796C125.697 46.9477 125.961 46.7433 126.133 46.4664C126.304 46.1894 126.39 45.8202 126.39 45.3586C126.39 44.963 126.297 44.6333 126.113 44.3696C125.928 44.1058 125.664 43.8882 125.322 43.7168C124.992 43.5322 124.59 43.3739 124.115 43.242C123.64 43.097 123.113 42.9585 122.532 42.8266C121.939 42.6684 121.379 42.4903 120.851 42.2925C120.324 42.0947 119.855 41.831 119.447 41.5013C119.038 41.1716 118.715 40.7496 118.477 40.2353C118.253 39.7078 118.141 39.055 118.141 38.2769C118.141 37.3274 118.339 36.5428 118.734 35.9229C119.13 35.2899 119.697 34.8152 120.436 34.4987C121.174 34.1822 122.051 34.0239 123.067 34.0239C123.95 34.0239 124.682 34.1558 125.262 34.4196C125.843 34.6701 126.304 35.0723 126.647 35.6262C126.99 36.1669 127.24 36.8724 127.399 37.7428L126.746 36.8922L127.102 34.2811H128.645V38.3956H126.865C126.706 37.8022 126.462 37.301 126.133 36.8922C125.816 36.4702 125.421 36.1537 124.946 35.9427C124.484 35.7185 123.95 35.6064 123.343 35.6064C122.816 35.6064 122.387 35.6724 122.058 35.8042C121.741 35.9361 121.51 36.1339 121.365 36.3977C121.22 36.6483 121.148 36.9648 121.148 37.3472C121.148 37.7296 121.227 38.0461 121.385 38.2967C121.557 38.5341 121.794 38.7319 122.097 38.8901C122.414 39.0352 122.79 39.1671 123.225 39.2858C123.673 39.3913 124.168 39.51 124.708 39.6418C125.341 39.7869 125.941 39.9583 126.508 40.1561C127.076 40.3408 127.583 40.5979 128.032 40.9276C128.48 41.2573 128.829 41.6793 129.08 42.1936C129.344 42.7079 129.476 43.3607 129.476 44.152C129.476 45.1938 129.271 46.0642 128.862 46.7631C128.454 47.462 127.854 47.9896 127.062 48.3456C126.284 48.6885 125.335 48.8599 124.214 48.8599C123.278 48.8599 122.453 48.7346 121.741 48.4841C121.042 48.2335 120.469 47.8049 120.02 47.1983C119.585 46.5785 119.282 45.7345 119.11 44.6663L119.763 45.4773L119.407 48.5236H117.805V43.875H119.723C119.948 44.6663 120.258 45.3125 120.653 45.8136C121.062 46.3147 121.543 46.684 122.097 46.9214C122.664 47.1455 123.278 47.2576 123.937 47.2576Z" fill="white"/>
<path d="M101.236 48.4642V46.9212H101.454C101.691 46.9212 101.902 46.9015 102.087 46.8619C102.272 46.8091 102.417 46.73 102.522 46.6245C102.628 46.5058 102.68 46.3542 102.68 46.1695V36.6745C102.68 36.4767 102.628 36.3316 102.522 36.2393C102.417 36.1338 102.272 36.0613 102.087 36.0217C101.902 35.9822 101.691 35.9624 101.454 35.9624H101.236V34.4194H107.349L113.006 45.497L112.611 45.4376V36.1998C112.611 36.147 112.545 36.1074 112.413 36.0811C112.281 36.0415 112.116 36.0151 111.918 36.0019C111.734 35.9756 111.549 35.9624 111.364 35.9624H111.107V34.4194H115.776V35.9624H115.578C115.34 35.9624 115.123 35.9822 114.925 36.0217C114.74 36.0613 114.595 36.1272 114.49 36.2195C114.384 36.2987 114.332 36.4437 114.332 36.6547V48.4642H110.672L103.907 35.27L104.401 35.4283V46.7036C104.401 46.73 104.467 46.763 104.599 46.8026C104.744 46.8421 104.909 46.8751 105.094 46.9015C105.292 46.9146 105.483 46.9212 105.667 46.9212H105.905V48.4642H101.236Z" fill="white"/>
<path d="M94.0403 46.2091V36.6745C94.0403 36.3844 93.9216 36.1932 93.6842 36.1008C93.46 36.0085 93.1699 35.9624 92.8138 35.9624H92.4775V34.4194H99.223V35.9624H98.8867C98.5306 35.9624 98.2339 36.0085 97.9965 36.1008C97.7723 36.1932 97.6602 36.3844 97.6602 36.6745V46.2091C97.6602 46.4992 97.7723 46.6905 97.9965 46.7828C98.2339 46.8751 98.5306 46.9212 98.8867 46.9212H99.223V48.4642H92.4775V46.9212H92.8138C93.1699 46.9212 93.46 46.8751 93.6842 46.7828C93.9216 46.6905 94.0403 46.4992 94.0403 46.2091Z" fill="white"/>
<path d="M210.328 23.1774V13.0098H209.715C209.174 13.0098 208.746 13.0427 208.429 13.1087C208.113 13.1746 207.882 13.2801 207.737 13.4252C207.592 13.5702 207.506 13.7615 207.48 13.9988L207.262 16.5902H205.462V11.3877H218.814V16.5902H217.014L216.797 13.9988C216.783 13.7615 216.704 13.5702 216.559 13.4252C216.414 13.2801 216.177 13.1746 215.847 13.1087C215.531 13.0427 215.102 13.0098 214.561 13.0098H213.948V23.1774C213.948 23.4675 214.073 23.6587 214.324 23.751C214.575 23.8433 214.878 23.8895 215.234 23.8895H215.59V25.4324H208.686V23.8895H209.042C209.398 23.8895 209.702 23.8433 209.952 23.751C210.203 23.6587 210.328 23.4675 210.328 23.1774Z" fill="white"/>
<path d="M197.394 12.6934C196.801 12.6934 196.28 12.8121 195.832 13.0494C195.396 13.2736 195.034 13.6165 194.744 14.0781C194.453 14.5396 194.236 15.1331 194.091 15.8584C193.946 16.5705 193.873 17.4211 193.873 18.4102C193.873 19.4256 193.946 20.296 194.091 21.0213C194.249 21.7466 194.48 22.3401 194.783 22.8016C195.086 23.25 195.469 23.5863 195.93 23.8105C196.405 24.0215 196.959 24.127 197.592 24.127C198.397 24.127 199.063 23.9687 199.59 23.6522C200.131 23.3357 200.566 22.9006 200.896 22.3467C201.238 21.7796 201.509 21.1334 201.707 20.4081L203.21 21.0807C202.946 22.0697 202.557 22.9203 202.043 23.6325C201.529 24.3314 200.876 24.8721 200.085 25.2545C199.293 25.637 198.324 25.8282 197.177 25.8282C196.109 25.8282 195.139 25.6699 194.269 25.3534C193.412 25.0369 192.667 24.5622 192.034 23.9292C191.414 23.2962 190.932 22.5181 190.59 21.595C190.247 20.6719 190.075 19.6103 190.075 18.4102C190.075 17.1837 190.247 16.109 190.59 15.1858C190.946 14.2627 191.434 13.4912 192.053 12.8714C192.673 12.2516 193.398 11.7834 194.229 11.4669C195.073 11.1504 195.977 10.9922 196.939 10.9922C197.915 10.9922 198.726 11.1768 199.372 11.5461C200.032 11.9153 200.553 12.4362 200.935 13.1088C201.318 13.7814 201.581 14.5792 201.726 15.5023L200.955 14.7704L201.331 11.2493H202.992V16.1749H201.054C200.856 15.4628 200.592 14.8495 200.263 14.3352C199.933 13.8077 199.531 13.4055 199.056 13.1286C198.594 12.8384 198.04 12.6934 197.394 12.6934Z" fill="white"/>
<path d="M187.852 20.9619V25.4324H175.885V23.8895H176.102C176.445 23.8895 176.735 23.8433 176.973 23.751C177.21 23.6587 177.329 23.4675 177.329 23.1774V13.6428C177.329 13.3526 177.21 13.1614 176.973 13.0691C176.735 12.9768 176.445 12.9306 176.102 12.9306H175.885V11.3877H187.457V15.3637H185.696L185.498 13.8604C185.472 13.623 185.38 13.445 185.222 13.3263C185.063 13.1944 184.833 13.1087 184.529 13.0691C184.239 13.0164 183.876 12.99 183.441 12.99H180.949V23.8302H183.501C183.896 23.8302 184.232 23.8236 184.509 23.8104C184.786 23.784 185.017 23.7378 185.202 23.6719C185.386 23.5928 185.525 23.5005 185.617 23.395C185.709 23.2763 185.769 23.1312 185.795 22.9598L186.072 20.9619H187.852ZM180.553 17.5199C181.12 17.4672 181.687 17.4276 182.254 17.4012C182.821 17.3617 183.382 17.3221 183.936 17.2825C184.503 17.2298 185.07 17.1902 185.637 17.1638V19.2805C185.07 19.2277 184.503 19.1881 183.936 19.1618C183.382 19.1222 182.821 19.0826 182.254 19.0431C181.687 19.0035 181.12 18.9639 180.553 18.9244V17.5199Z" fill="white"/>
<path d="M168.865 11.3877V12.9306H168.529C168.12 12.9306 167.79 12.9768 167.539 13.0691C167.289 13.1614 167.164 13.3526 167.164 13.6428V23.8302H169.518C170.045 23.8302 170.474 23.8104 170.803 23.7708C171.146 23.7181 171.397 23.6323 171.555 23.5137C171.713 23.3818 171.806 23.1972 171.832 22.9598L172.109 20.408H173.909V25.4324H162.1V23.8895H162.317C162.673 23.8895 162.963 23.8433 163.188 23.751C163.425 23.6587 163.544 23.4675 163.544 23.1774V13.6428C163.544 13.3526 163.425 13.1614 163.188 13.0691C162.963 12.9768 162.673 12.9306 162.317 12.9306H162.1V11.3877H168.865Z" fill="white"/>
<path d="M155.083 11.3877V12.9306H154.746C154.338 12.9306 154.008 12.9768 153.757 13.0691C153.507 13.1614 153.381 13.3526 153.381 13.6428V23.8302H155.735C156.263 23.8302 156.691 23.8104 157.021 23.7708C157.364 23.7181 157.615 23.6323 157.773 23.5137C157.931 23.3818 158.023 23.1972 158.05 22.9598L158.327 20.408H160.127V25.4324H148.317V23.8895H148.535C148.891 23.8895 149.181 23.8433 149.405 23.751C149.643 23.6587 149.761 23.4675 149.761 23.1774V13.6428C149.761 13.3526 149.643 13.1614 149.405 13.0691C149.181 12.9768 148.891 12.9306 148.535 12.9306H148.317V11.3877H155.083Z" fill="white"/>
<path d="M146.056 20.9619V25.4324H134.088V23.8895H134.305C134.648 23.8895 134.938 23.8433 135.176 23.751C135.413 23.6587 135.532 23.4675 135.532 23.1774V13.6428C135.532 13.3526 135.413 13.1614 135.176 13.0691C134.938 12.9768 134.648 12.9306 134.305 12.9306H134.088V11.3877H145.66V15.3637H143.899L143.702 13.8604C143.675 13.623 143.583 13.445 143.425 13.3263C143.266 13.1944 143.036 13.1087 142.732 13.0691C142.442 13.0164 142.08 12.99 141.644 12.99H139.152V23.8302H141.704C142.099 23.8302 142.436 23.8236 142.713 23.8104C142.989 23.784 143.22 23.7378 143.405 23.6719C143.59 23.5928 143.728 23.5005 143.82 23.395C143.913 23.2763 143.972 23.1312 143.998 22.9598L144.275 20.9619H146.056ZM138.756 17.5199C139.323 17.4672 139.89 17.4276 140.457 17.4012C141.025 17.3617 141.585 17.3221 142.139 17.2825C142.706 17.2298 143.273 17.1902 143.84 17.1638V19.2805C143.273 19.2277 142.706 19.1881 142.139 19.1618C141.585 19.1222 141.025 19.0826 140.457 19.0431C139.89 19.0035 139.323 18.9639 138.756 18.9244V17.5199Z" fill="white"/>
<path d="M123.623 23.1774V13.0098H123.01C122.469 13.0098 122.041 13.0427 121.724 13.1087C121.408 13.1746 121.177 13.2801 121.032 13.4252C120.887 13.5702 120.801 13.7615 120.775 13.9988L120.557 16.5902H118.757V11.3877H132.109V16.5902H130.309L130.092 13.9988C130.078 13.7615 129.999 13.5702 129.854 13.4252C129.709 13.2801 129.472 13.1746 129.142 13.1087C128.826 13.0427 128.397 13.0098 127.856 13.0098H127.243V23.1774C127.243 23.4675 127.368 23.6587 127.619 23.751C127.869 23.8433 128.173 23.8895 128.529 23.8895H128.885V25.4324H121.981V23.8895H122.337C122.693 23.8895 122.997 23.8433 123.247 23.751C123.498 23.6587 123.623 23.4675 123.623 23.1774Z" fill="white"/>
<path d="M102.31 25.4324V23.8895H102.527C102.765 23.8895 102.976 23.8697 103.16 23.8302C103.345 23.7774 103.49 23.6983 103.595 23.5928C103.701 23.4741 103.754 23.3224 103.754 23.1378V13.6428C103.754 13.445 103.701 13.2999 103.595 13.2076C103.49 13.1021 103.345 13.0295 103.16 12.99C102.976 12.9504 102.765 12.9306 102.527 12.9306H102.31V11.3877H108.422L114.079 22.4652L113.684 22.4059V13.168C113.684 13.1153 113.618 13.0757 113.486 13.0493C113.354 13.0098 113.189 12.9834 112.991 12.9702C112.807 12.9438 112.622 12.9306 112.438 12.9306H112.18V11.3877H116.849V12.9306H116.651C116.414 12.9306 116.196 12.9504 115.998 12.99C115.814 13.0295 115.669 13.0955 115.563 13.1878C115.458 13.2669 115.405 13.412 115.405 13.623V25.4324H111.745L104.98 12.2383L105.475 12.3965V23.6719C105.475 23.6983 105.541 23.7313 105.672 23.7708C105.817 23.8104 105.982 23.8433 106.167 23.8697C106.365 23.8829 106.556 23.8895 106.741 23.8895H106.978V25.4324H102.31Z" fill="white"/>
<path d="M95.1116 23.1774V13.6428C95.1116 13.3526 94.9929 13.1614 94.7555 13.0691C94.5313 12.9768 94.2412 12.9306 93.8851 12.9306H93.5488V11.3877H100.294V12.9306H99.958C99.6019 12.9306 99.3052 12.9768 99.0678 13.0691C98.8436 13.1614 98.7315 13.3526 98.7315 13.6428V23.1774C98.7315 23.4675 98.8436 23.6587 99.0678 23.751C99.3052 23.8433 99.6019 23.8895 99.958 23.8895H100.294V25.4324H93.5488V23.8895H93.8851C94.2412 23.8895 94.5313 23.8433 94.7555 23.751C94.9929 23.6587 95.1116 23.4675 95.1116 23.1774Z" fill="white"/>
</svg>
