<svg width="64" height="71" viewBox="0 0 64 71" fill="none" xmlns="http://www.w3.org/2000/svg">
<path d="M36.1339 47.9614C38.3235 47.8129 40.0306 47.5408 41.243 47.1449C42.4553 46.749 43.3831 46.1305 44.0264 45.2893C44.6697 44.4481 45.0655 43.3471 45.214 41.9863C45.3624 40.6255 45.4367 38.906 45.4367 36.8277V12.0244C45.4367 9.94608 45.3624 8.22654 45.214 6.86576C45.0655 5.50498 44.6697 4.40398 44.0264 3.56277C43.3831 2.72156 42.4306 2.10303 41.1564 1.70716C39.8822 1.3113 38.1379 1.03914 35.9483 0.890693V0C38.509 0.0989659 40.9832 0.17319 43.3831 0.222673C45.783 0.272156 48.2696 0.296898 50.8179 0.296898C52.822 0.296898 54.8384 0.272156 56.8425 0.222673C58.8465 0.17319 60.8259 0.0989659 62.7804 0V0.890693C60.6527 1.03914 58.9826 1.3113 57.7579 1.70716C56.5456 2.10303 55.6302 2.72156 55.024 3.56277C54.4178 4.40398 54.0343 5.50498 53.8859 6.86576C53.7374 8.22654 53.6632 9.94608 53.6632 12.0244V36.8277C53.6632 38.906 53.7374 40.6255 53.8859 41.9863C54.0343 43.3471 54.4302 44.4481 55.0735 45.2893C55.7168 46.1305 56.6693 46.749 57.9435 47.1449C59.2177 47.5408 60.9867 47.8129 63.2382 47.9614V48.8521C60.9248 48.7531 58.6115 48.6789 56.2982 48.6294C53.9848 48.5799 51.6715 48.5552 49.3582 48.5552C47.1067 48.5552 44.88 48.5799 42.6904 48.6294C40.5007 48.6789 38.3111 48.7531 36.1215 48.8521V47.9614H36.1339Z" fill="#EC000A"/>
<path d="M0.185561 47.9614C2.37518 47.8129 4.08235 47.5408 5.29468 47.1449C6.50701 46.749 7.43482 46.1305 8.0781 45.2893C8.72137 44.4481 9.11724 43.3471 9.26569 41.9863C9.41414 40.6255 9.48836 38.906 9.48836 36.8277V12.0244C9.48836 9.94608 9.41414 8.22654 9.26569 6.86576C9.11724 5.50498 8.72137 4.40398 8.0781 3.56277C7.43482 2.72156 6.48227 2.10303 5.20808 1.70716C3.9339 1.3113 2.18962 1.03914 0 0.890693V0C2.56074 0.0989659 5.03489 0.17319 7.43482 0.222673C9.83474 0.272156 12.3213 0.296898 14.8696 0.296898C16.8737 0.296898 18.8901 0.272156 20.8942 0.222673C22.8982 0.17319 24.8776 0.0989659 26.8321 0V0.890693C24.7044 1.03914 23.0343 1.3113 21.8096 1.70716C20.5973 2.10303 19.6819 2.72156 19.0757 3.56277C18.4695 4.40398 18.086 5.50498 17.9376 6.86576C17.7891 8.22654 17.7149 9.94608 17.7149 12.0244V36.8277C17.7149 38.906 17.7891 40.6255 17.9376 41.9863C18.086 43.3471 18.4819 44.4481 19.1252 45.2893C19.7684 46.1305 20.721 46.749 21.9952 47.1449C23.2694 47.5408 25.0384 47.8129 27.2899 47.9614V48.8521C24.9765 48.7531 22.6632 48.6789 20.3499 48.6294C18.0365 48.5799 15.7232 48.5552 13.4099 48.5552C11.1584 48.5552 8.93168 48.5799 6.74206 48.6294C4.55243 48.6789 2.36281 48.7531 0.173191 48.8521V47.9614H0.185561Z" fill="#EC000A"/>
<path d="M59.687 68.3511V70.3817H54.2511V69.6809H54.3499C54.5057 69.6809 54.6375 69.6599 54.7453 69.618C54.8531 69.5761 54.907 69.4892 54.907 69.3574V65.0267C54.907 64.8949 54.8531 64.8081 54.7453 64.7662C54.6375 64.7242 54.5057 64.7033 54.3499 64.7033H54.2511V64.0024H59.5073V65.8084H58.7076L58.6178 65.1256C58.6058 65.0177 58.5639 64.9369 58.492 64.883C58.4201 64.8231 58.3153 64.7841 58.1775 64.7662C58.0457 64.7422 57.881 64.7302 57.6833 64.7302H56.5512V69.6539H57.7103C57.89 69.6539 58.0427 69.651 58.1685 69.645C58.2943 69.633 58.3991 69.612 58.483 69.5821C58.5668 69.5461 58.6297 69.5042 58.6717 69.4563C58.7136 69.4024 58.7406 69.3365 58.7525 69.2586L58.8783 68.3511H59.687ZM56.3715 66.7878C56.6291 66.7638 56.8867 66.7458 57.1442 66.7339C57.4018 66.7159 57.6564 66.6979 57.908 66.6799C58.1655 66.656 58.4231 66.638 58.6807 66.626V67.5874C58.4231 67.5635 58.1655 67.5455 57.908 67.5335C57.6564 67.5155 57.4018 67.4976 57.1442 67.4796C56.8867 67.4616 56.6291 67.4437 56.3715 67.4257V66.7878Z" fill="white"/>
<path d="M49.4988 69.3574V64.7392H49.2203C48.9747 64.7392 48.78 64.7542 48.6362 64.7841C48.4925 64.8141 48.3877 64.862 48.3218 64.9279C48.2559 64.9938 48.217 65.0806 48.205 65.1884L48.1061 66.3655H47.2885V64.0024H53.3533V66.3655H52.5357L52.4369 65.1884C52.4309 65.0806 52.3949 64.9938 52.329 64.9279C52.2632 64.862 52.1553 64.8141 52.0056 64.7841C51.8618 64.7542 51.6672 64.7392 51.4216 64.7392H51.143V69.3574C51.143 69.4892 51.1999 69.5761 51.3137 69.618C51.4276 69.6599 51.5653 69.6809 51.7271 69.6809H51.8888V70.3817H48.7531V69.6809H48.9148C49.0765 69.6809 49.2143 69.6599 49.3281 69.618C49.4419 69.5761 49.4988 69.4892 49.4988 69.3574Z" fill="white"/>
<path d="M42.2927 67.9917C42.2927 68.3092 42.3226 68.5788 42.3825 68.8004C42.4424 69.016 42.5293 69.1897 42.6431 69.3215C42.7629 69.4533 42.9067 69.5491 43.0744 69.609C43.2421 69.6689 43.4368 69.6989 43.6584 69.6989C43.8621 69.6989 44.0477 69.6689 44.2155 69.609C44.3832 69.5431 44.5269 69.4443 44.6467 69.3125C44.7665 69.1748 44.8594 68.998 44.9253 68.7824C44.9912 68.5608 45.0241 68.2972 45.0241 67.9917V64.874C45.0241 64.844 45.0061 64.8201 44.9702 64.8021C44.9342 64.7781 44.8863 64.7602 44.8264 64.7482C44.7725 64.7362 44.7096 64.7272 44.6377 64.7212C44.5719 64.7093 44.503 64.7033 44.4311 64.7033H44.3323V64.0024H46.4347V64.7033H46.3449C46.2371 64.7033 46.1412 64.7152 46.0574 64.7392C45.9735 64.7572 45.9076 64.7931 45.8597 64.847C45.8118 64.8949 45.7878 64.9668 45.7878 65.0627V67.9828C45.7878 68.444 45.7249 68.8393 45.5991 69.1688C45.4733 69.4922 45.2966 69.7588 45.069 69.9684C44.8414 70.1721 44.5749 70.3218 44.2694 70.4177C43.9699 70.5135 43.6464 70.5614 43.299 70.5614C42.9037 70.5614 42.5413 70.5105 42.2118 70.4087C41.8884 70.3128 41.6098 70.1631 41.3762 69.9594C41.1426 69.7498 40.9629 69.4832 40.8371 69.1598C40.7113 68.8303 40.6485 68.441 40.6485 67.9917V65.0267C40.6485 64.8949 40.5945 64.8081 40.4867 64.7662C40.3849 64.7242 40.2531 64.7033 40.0914 64.7033H39.9926V64.0024H42.9576V64.7033H42.8587C42.7988 64.7033 42.7359 64.7063 42.6701 64.7122C42.6042 64.7122 42.5413 64.7182 42.4814 64.7302C42.4275 64.7362 42.3825 64.7452 42.3466 64.7572C42.3107 64.7632 42.2927 64.7751 42.2927 64.7931V67.9917Z" fill="white"/>
<path d="M35.2853 69.3574V64.7392H35.0068C34.7612 64.7392 34.5665 64.7542 34.4228 64.7841C34.279 64.8141 34.1742 64.862 34.1083 64.9279C34.0424 64.9938 34.0035 65.0806 33.9915 65.1884L33.8926 66.3655H33.075V64.0024H39.1398V66.3655H38.3222L38.2234 65.1884C38.2174 65.0806 38.1814 64.9938 38.1155 64.9279C38.0497 64.862 37.9418 64.8141 37.7921 64.7841C37.6483 64.7542 37.4537 64.7392 37.2081 64.7392H36.9295V69.3574C36.9295 69.4892 36.9864 69.5761 37.1003 69.618C37.2141 69.6599 37.3518 69.6809 37.5136 69.6809H37.6753V70.3817H34.5396V69.6809H34.7013C34.863 69.6809 35.0008 69.6599 35.1146 69.618C35.2284 69.5761 35.2853 69.4892 35.2853 69.3574Z" fill="white"/>
<path d="M29.8233 69.3574V65.0267C29.8233 64.8949 29.7694 64.8081 29.6616 64.7662C29.5598 64.7242 29.428 64.7033 29.2663 64.7033H29.1135V64.0024H32.1774V64.7033H32.0246C31.8629 64.7033 31.7281 64.7242 31.6203 64.7662C31.5185 64.8081 31.4676 64.8949 31.4676 65.0267V69.3574C31.4676 69.4892 31.5185 69.5761 31.6203 69.618C31.7281 69.6599 31.8629 69.6809 32.0246 69.6809H32.1774V70.3817H29.1135V69.6809H29.2663C29.428 69.6809 29.5598 69.6599 29.6616 69.618C29.7694 69.5761 29.8233 69.4892 29.8233 69.3574Z" fill="white"/>
<path d="M24.3613 69.3574V64.7392H24.0828C23.8372 64.7392 23.6425 64.7542 23.4987 64.7841C23.355 64.8141 23.2502 64.862 23.1843 64.9279C23.1184 64.9938 23.0794 65.0806 23.0675 65.1884L22.9686 66.3655H22.151V64.0024H28.2158V66.3655H27.3982L27.2994 65.1884C27.2934 65.0806 27.2574 64.9938 27.1915 64.9279C27.1256 64.862 27.0178 64.8141 26.8681 64.7841C26.7243 64.7542 26.5296 64.7392 26.2841 64.7392H26.0055V69.3574C26.0055 69.4892 26.0624 69.5761 26.1762 69.618C26.29 69.6599 26.4278 69.6809 26.5895 69.6809H26.7513V70.3817H23.6155V69.6809H23.7773C23.939 69.6809 24.0768 69.6599 24.1906 69.618C24.3044 69.5761 24.3613 69.4892 24.3613 69.3574Z" fill="white"/>
<path d="M18.9226 69.8337C19.1862 69.8337 19.3988 69.8067 19.5606 69.7528C19.7223 69.6929 19.8421 69.6 19.92 69.4743C19.9978 69.3485 20.0368 69.1808 20.0368 68.9711C20.0368 68.7914 19.9948 68.6417 19.911 68.5219C19.8271 68.4021 19.7073 68.3032 19.5516 68.2254C19.4018 68.1415 19.2192 68.0696 19.0035 68.0097C18.7879 67.9438 18.5483 67.8809 18.2847 67.821C18.0152 67.7492 17.7606 67.6683 17.521 67.5784C17.2814 67.4886 17.0688 67.3688 16.8831 67.219C16.6974 67.0693 16.5506 66.8776 16.4428 66.644C16.341 66.4044 16.2901 66.1079 16.2901 65.7545C16.2901 65.3232 16.3799 64.9668 16.5596 64.6853C16.7393 64.3978 16.9969 64.1822 17.3323 64.0384C17.6678 63.8946 18.0661 63.8228 18.5273 63.8228C18.9286 63.8228 19.2611 63.8827 19.5246 64.0025C19.7882 64.1163 19.9978 64.299 20.1536 64.5505C20.3093 64.7961 20.4231 65.1166 20.495 65.5119L20.1985 65.1256L20.3602 63.9396H21.0611V65.8084H20.2524C20.1805 65.5389 20.0697 65.3113 19.92 65.1256C19.7762 64.9339 19.5965 64.7901 19.3809 64.6943C19.1712 64.5925 18.9286 64.5415 18.6531 64.5415C18.4135 64.5415 18.2188 64.5715 18.0691 64.6314C17.9253 64.6913 17.8205 64.7811 17.7546 64.9009C17.6887 65.0148 17.6558 65.1585 17.6558 65.3322C17.6558 65.5059 17.6917 65.6497 17.7636 65.7635C17.8415 65.8713 17.9493 65.9612 18.0871 66.033C18.2308 66.0989 18.4015 66.1588 18.5992 66.2127C18.8028 66.2607 19.0275 66.3146 19.2731 66.3745C19.5606 66.4404 19.8331 66.5182 20.0907 66.6081C20.3483 66.6919 20.5789 66.8087 20.7825 66.9585C20.9862 67.1082 21.1449 67.2999 21.2587 67.5335C21.3785 67.7671 21.4384 68.0636 21.4384 68.423C21.4384 68.8962 21.3456 69.2916 21.1599 69.609C20.9742 69.9265 20.7017 70.1661 20.3423 70.3278C19.9889 70.4836 19.5576 70.5614 19.0484 70.5614C18.6232 70.5614 18.2488 70.5045 17.9253 70.3907C17.6079 70.2769 17.3473 70.0822 17.1436 69.8067C16.946 69.5252 16.8082 69.1418 16.7303 68.6566L17.0268 69.025L16.8651 70.4087H16.1373V68.2972H17.0089C17.1107 68.6566 17.2515 68.9501 17.4312 69.1778C17.6168 69.4054 17.8355 69.5731 18.0871 69.6809C18.3446 69.7827 18.6232 69.8337 18.9226 69.8337Z" fill="white"/>
<path d="M8.61212 70.3817V69.6809H8.71096C8.81877 69.6809 8.91461 69.6719 8.99847 69.6539C9.08233 69.63 9.14822 69.594 9.19614 69.5461C9.24406 69.4922 9.26802 69.4233 9.26802 69.3395V65.0267C9.26802 64.9369 9.24406 64.871 9.19614 64.8291C9.14822 64.7811 9.08233 64.7482 8.99847 64.7302C8.91461 64.7122 8.81877 64.7033 8.71096 64.7033H8.61212V64.0024H11.3885L13.9581 69.034L13.7784 69.007V64.8111C13.7784 64.7871 13.7485 64.7692 13.6886 64.7572C13.6287 64.7392 13.5538 64.7272 13.464 64.7212C13.3801 64.7093 13.2963 64.7033 13.2124 64.7033H13.0956V64.0024H15.216V64.7033H15.1262C15.0184 64.7033 14.9195 64.7122 14.8297 64.7302C14.7458 64.7482 14.6799 64.7781 14.632 64.8201C14.5841 64.856 14.5601 64.9219 14.5601 65.0177V70.3817H12.8979L9.82508 64.3888L10.0497 64.4607V69.5821C10.0497 69.594 10.0797 69.609 10.1396 69.627C10.2054 69.645 10.2803 69.6599 10.3642 69.6719C10.454 69.6779 10.5409 69.6809 10.6247 69.6809H10.7326V70.3817H8.61212Z" fill="white"/>
<path d="M5.34372 69.3574V65.0267C5.34372 64.8949 5.28981 64.8081 5.18199 64.7662C5.08016 64.7242 4.94838 64.7033 4.78665 64.7033H4.63391V64.0024H7.69776V64.7033H7.54502C7.38329 64.7033 7.24852 64.7242 7.1407 64.7662C7.03887 64.8081 6.98796 64.8949 6.98796 65.0267V69.3574C6.98796 69.4892 7.03887 69.5761 7.1407 69.618C7.24852 69.6599 7.38329 69.6809 7.54502 69.6809H7.69776V70.3817H4.63391V69.6809H4.78665C4.94838 69.6809 5.08016 69.6599 5.18199 69.618C5.28981 69.5761 5.34372 69.4892 5.34372 69.3574Z" fill="white"/>
<path d="M56.7437 58.5347V53.9164H56.4652C56.2196 53.9164 56.0249 53.9314 55.8812 53.9614C55.7374 53.9913 55.6326 54.0392 55.5667 54.1051C55.5008 54.171 55.4619 54.2579 55.4499 54.3657L55.3511 55.5427H54.5334V53.1797H60.5983V55.5427H59.7806L59.6818 54.3657C59.6758 54.2579 59.6399 54.171 59.574 54.1051C59.5081 54.0392 59.4003 53.9913 59.2505 53.9614C59.1068 53.9314 58.9121 53.9164 58.6665 53.9164H58.388V58.5347C58.388 58.6665 58.4449 58.7533 58.5587 58.7953C58.6725 58.8372 58.8103 58.8581 58.972 58.8581H59.1337V59.559H55.998V58.8581H56.1597C56.3214 58.8581 56.4592 58.8372 56.573 58.7953C56.6868 58.7533 56.7437 58.6665 56.7437 58.5347Z" fill="white"/>
<path d="M50.8696 53.7727C50.6 53.7727 50.3634 53.8266 50.1598 53.9344C49.9621 54.0363 49.7974 54.192 49.6656 54.4016C49.5338 54.6113 49.435 54.8808 49.3691 55.2103C49.3032 55.5337 49.2703 55.9201 49.2703 56.3693C49.2703 56.8306 49.3032 57.2259 49.3691 57.5553C49.441 57.8848 49.5458 58.1543 49.6836 58.364C49.8213 58.5676 49.995 58.7204 50.2047 58.8222C50.4203 58.9181 50.6719 58.966 50.9594 58.966C51.3248 58.966 51.6273 58.8941 51.8669 58.7503C52.1125 58.6066 52.3102 58.4089 52.4599 58.1573C52.6156 57.8998 52.7384 57.6063 52.8283 57.2768L53.5111 57.5823C53.3913 58.0315 53.2146 58.4179 52.981 58.7414C52.7474 59.0588 52.4509 59.3044 52.0915 59.4781C51.7321 59.6518 51.2919 59.7387 50.7707 59.7387C50.2856 59.7387 49.8453 59.6668 49.45 59.523C49.0606 59.3793 48.7222 59.1636 48.4347 58.8761C48.1531 58.5886 47.9345 58.2352 47.7788 57.8159C47.623 57.3966 47.5452 56.9144 47.5452 56.3693C47.5452 55.8123 47.623 55.3241 47.7788 54.9048C47.9405 54.4855 48.1621 54.1351 48.4437 53.8536C48.7252 53.572 49.0546 53.3594 49.432 53.2156C49.8154 53.0719 50.2257 53 50.6629 53C51.1062 53 51.4746 53.0839 51.7681 53.2516C52.0676 53.4193 52.3042 53.6559 52.4779 53.9614C52.6516 54.2669 52.7714 54.6293 52.8373 55.0486L52.4869 54.7161L52.6576 53.1168H53.4123V55.354H52.5318C52.4419 55.0306 52.3221 54.7521 52.1724 54.5184C52.0226 54.2789 51.8399 54.0962 51.6243 53.9704C51.4147 53.8386 51.1631 53.7727 50.8696 53.7727Z" fill="white"/>
<path d="M46.5361 57.5284V59.559H41.1002V58.8581H41.1991C41.3548 58.8581 41.4866 58.8372 41.5944 58.7953C41.7022 58.7533 41.7561 58.6665 41.7561 58.5347V54.204C41.7561 54.0722 41.7022 53.9853 41.5944 53.9434C41.4866 53.9015 41.3548 53.8805 41.1991 53.8805H41.1002V53.1797H46.3564V54.9857H45.5567L45.4669 54.3028C45.4549 54.195 45.413 54.1141 45.3411 54.0602C45.2692 54.0003 45.1644 53.9614 45.0266 53.9434C44.8948 53.9194 44.7301 53.9075 44.5325 53.9075H43.4004V58.8312H44.5594C44.7391 58.8312 44.8918 58.8282 45.0176 58.8222C45.1434 58.8102 45.2483 58.7893 45.3321 58.7593C45.416 58.7234 45.4789 58.6814 45.5208 58.6335C45.5627 58.5796 45.5897 58.5137 45.6017 58.4359L45.7274 57.5284H46.5361ZM43.2207 55.965C43.4782 55.941 43.7358 55.9231 43.9934 55.9111C44.2509 55.8931 44.5055 55.8752 44.7571 55.8572C45.0146 55.8332 45.2722 55.8153 45.5298 55.8033V56.7647C45.2722 56.7407 45.0146 56.7227 44.7571 56.7108C44.5055 56.6928 44.2509 56.6748 43.9934 56.6568C43.7358 56.6389 43.4782 56.6209 43.2207 56.6029V55.965Z" fill="white"/>
<path d="M37.9122 53.1797V53.8805H37.7595C37.5738 53.8805 37.424 53.9015 37.3102 53.9434C37.1964 53.9853 37.1395 54.0722 37.1395 54.204V58.8312H38.2087C38.4483 58.8312 38.643 58.8222 38.7927 58.8042C38.9485 58.7803 39.0623 58.7413 39.1341 58.6874C39.206 58.6275 39.2479 58.5437 39.2599 58.4359L39.3857 57.2768H40.2033V59.559H34.8394V58.8581H34.9382C35.0999 58.8581 35.2317 58.8372 35.3335 58.7953C35.4413 58.7533 35.4953 58.6665 35.4953 58.5347V54.204C35.4953 54.0722 35.4413 53.9853 35.3335 53.9434C35.2317 53.9015 35.0999 53.8805 34.9382 53.8805H34.8394V53.1797H37.9122Z" fill="white"/>
<path d="M31.6525 53.1797V53.8805H31.4998C31.3141 53.8805 31.1644 53.9015 31.0506 53.9434C30.9368 53.9853 30.8798 54.0722 30.8798 54.204V58.8312H31.9491C32.1886 58.8312 32.3833 58.8222 32.5331 58.8042C32.6888 58.7803 32.8026 58.7413 32.8745 58.6874C32.9464 58.6275 32.9883 58.5437 33.0003 58.4359L33.1261 57.2768H33.9437V59.559H28.5797V58.8581H28.6785C28.8403 58.8581 28.9721 58.8372 29.0739 58.7953C29.1817 58.7533 29.2356 58.6665 29.2356 58.5347V54.204C29.2356 54.0722 29.1817 53.9853 29.0739 53.9434C28.9721 53.9015 28.8403 53.8805 28.6785 53.8805H28.5797V53.1797H31.6525Z" fill="white"/>
<path d="M27.5526 57.5284V59.559H22.1167V58.8581H22.2155C22.3713 58.8581 22.503 58.8372 22.6109 58.7953C22.7187 58.7533 22.7726 58.6665 22.7726 58.5347V54.204C22.7726 54.0722 22.7187 53.9853 22.6109 53.9434C22.503 53.9015 22.3713 53.8805 22.2155 53.8805H22.1167V53.1797H27.3729V54.9857H26.5732L26.4834 54.3028C26.4714 54.195 26.4295 54.1141 26.3576 54.0602C26.2857 54.0003 26.1809 53.9614 26.0431 53.9434C25.9113 53.9194 25.7466 53.9075 25.5489 53.9075H24.4168V58.8312H25.5759C25.7556 58.8312 25.9083 58.8282 26.0341 58.8222C26.1599 58.8102 26.2647 58.7893 26.3486 58.7593C26.4324 58.7234 26.4953 58.6814 26.5373 58.6335C26.5792 58.5796 26.6062 58.5137 26.6181 58.4359L26.7439 57.5284H27.5526ZM24.2371 55.965C24.4947 55.941 24.7523 55.9231 25.0098 55.9111C25.2674 55.8931 25.522 55.8752 25.7736 55.8572C26.0311 55.8332 26.2887 55.8153 26.5463 55.8033V56.7647C26.2887 56.7407 26.0311 56.7227 25.7736 56.7108C25.522 56.6928 25.2674 56.6748 25.0098 56.6568C24.7523 56.6389 24.4947 56.6209 24.2371 56.6029V55.965Z" fill="white"/>
<path d="M17.3645 58.5347V53.9164H17.0859C16.8403 53.9164 16.6457 53.9314 16.5019 53.9614C16.3582 53.9913 16.2533 54.0392 16.1874 54.1051C16.1215 54.171 16.0826 54.2579 16.0706 54.3657L15.9718 55.5427H15.1542V53.1797H21.219V55.5427H20.4014L20.3025 54.3657C20.2965 54.2579 20.2606 54.171 20.1947 54.1051C20.1288 54.0392 20.021 53.9913 19.8712 53.9614C19.7275 53.9314 19.5328 53.9164 19.2872 53.9164H19.0087V58.5347C19.0087 58.6665 19.0656 58.7533 19.1794 58.7953C19.2932 58.8372 19.431 58.8581 19.5927 58.8581H19.7544V59.559H16.6187V58.8581H16.7804C16.9422 58.8581 17.0799 58.8372 17.1937 58.7953C17.3076 58.7533 17.3645 58.6665 17.3645 58.5347Z" fill="white"/>
<path d="M7.68433 59.559V58.8581H7.78316C7.89098 58.8581 7.98682 58.8492 8.07068 58.8312C8.15454 58.8072 8.22043 58.7713 8.26835 58.7234C8.31626 58.6695 8.34022 58.6006 8.34022 58.5167V54.204C8.34022 54.1141 8.31626 54.0482 8.26835 54.0063C8.22043 53.9584 8.15454 53.9254 8.07068 53.9075C7.98682 53.8895 7.89098 53.8805 7.78316 53.8805H7.68433V53.1797H10.4607L13.0303 58.2112L12.8506 58.1843V53.9883C12.8506 53.9644 12.8207 53.9464 12.7608 53.9344C12.7009 53.9164 12.626 53.9045 12.5362 53.8985C12.4523 53.8865 12.3685 53.8805 12.2846 53.8805H12.1678V53.1797H14.2882V53.8805H14.1984C14.0906 53.8805 13.9917 53.8895 13.9019 53.9075C13.818 53.9254 13.7521 53.9554 13.7042 53.9973C13.6563 54.0333 13.6323 54.0991 13.6323 54.195V59.559H11.9701L8.89729 53.566L9.12191 53.6379V58.7593C9.12191 58.7713 9.15186 58.7863 9.21176 58.8042C9.27765 58.8222 9.35252 58.8372 9.43638 58.8492C9.52623 58.8552 9.61309 58.8581 9.69694 58.8581H9.80476V59.559H7.68433Z" fill="white"/>
<path d="M4.41464 58.5347V54.204C4.41464 54.0722 4.36073 53.9853 4.25291 53.9434C4.15108 53.9015 4.01931 53.8805 3.85758 53.8805H3.70483V53.1797H6.76869V53.8805H6.61594C6.45421 53.8805 6.31944 53.9015 6.21162 53.9434C6.10979 53.9853 6.05888 54.0722 6.05888 54.204V58.5347C6.05888 58.6665 6.10979 58.7533 6.21162 58.7953C6.31944 58.8372 6.45421 58.8581 6.61594 58.8581H6.76869V59.559H3.70483V58.8581H3.85758C4.01931 58.8581 4.15108 58.8372 4.25291 58.7953C4.36073 58.7533 4.41464 58.6665 4.41464 58.5347Z" fill="white"/>
</svg>
