<svg width="441" height="387" viewBox="0 0 441 387" fill="none" xmlns="http://www.w3.org/2000/svg">
<path d="M239.14 172.66C239.14 172.66 233.479 185.41 224.529 200.39C222.469 203.84 221.169 207.16 220.389 210.23C219.839 207.06 219.1 203.81 218.189 200.49C218.229 200.55 218.259 200.58 218.259 200.58C232.079 170.45 219.27 142.33 219.27 142.33C219.27 142.33 217.639 156.19 213.539 173.15C212.539 177.28 212.309 181.02 212.529 184.32C210.449 179.34 208.139 174.53 205.77 170C213.189 138.17 195.609 113.37 195.609 113.37C196.439 111.4 195.259 142.19 196.399 153.62C182.319 123.7 163.679 108.04 154.729 105.08C154.729 105.08 162.66 116.56 170.77 132.01C178.889 147.46 192.429 149.5 192.429 149.5C192.309 149.11 192.179 148.74 192.059 148.36C194.719 152.05 197.549 157.36 199.079 161.82C180.709 140.48 155.399 137.22 155.399 137.22C155.399 137.22 166.32 145.91 178.57 158.34C189.21 169.14 200.829 169.07 203.699 168.86C207.959 174.95 211.34 182.55 213.41 190.02C194.939 166.31 167.57 162.77 167.57 162.77C167.57 162.77 178.49 171.46 190.74 183.89C200.38 193.68 210.829 194.53 214.839 194.46C217.729 200.49 219.379 207.02 219.779 213.19C201.329 187.81 172.549 184.11 172.549 184.11C172.549 184.11 183.469 192.8 195.719 205.23C205.089 214.74 215.22 215.82 219.46 215.8C221.66 234.66 219.229 247.82 207.719 261.85L208.38 262.39C216.66 252.38 221.069 240.6 221.619 227.18C242.929 202.64 239.14 172.66 239.14 172.66Z" fill="#4A1212"/>
<path d="M336.989 307.87C336.989 307.87 324.609 306.58 309.439 303.11C305.949 302.31 302.769 302.13 299.949 302.3C302.489 300.96 305.039 299.44 307.609 297.75C307.569 297.8 307.549 297.84 307.549 297.84C336.919 301.27 357.259 282.65 357.259 282.65C357.259 282.65 345.049 285.09 329.529 286.28C325.749 286.57 322.519 287.41 319.769 288.5C323.419 285.36 326.869 282.08 330.059 278.82C359.109 276.35 375.309 254.6 375.309 254.6C377.209 254.76 350.759 262.24 341.379 266.35C362.619 246.59 371.249 225.54 371.089 217.63C371.089 217.63 363.529 227.52 352.659 238.66C341.789 249.8 343.779 261.85 343.779 261.85C344.079 261.65 344.349 261.43 344.639 261.22C342.239 264.49 338.519 268.36 335.149 270.88C348.199 249.42 343.989 227.04 343.989 227.04C343.989 227.04 339.629 238.7 332.449 252.51C326.219 264.51 329.479 274.35 330.439 276.73C326.449 282.02 320.929 286.99 315.159 290.79C330.189 268.59 325.649 244.39 325.649 244.39C325.649 244.39 321.289 256.05 314.109 269.86C308.459 280.74 310.609 289.84 311.779 293.22C307.459 297.34 302.379 300.53 297.249 302.57C313.699 279.93 308.909 254.49 308.909 254.49C308.909 254.49 304.549 266.15 297.369 279.96C291.879 290.53 293.759 299.42 294.939 303.02C279.539 310.08 267.709 311.64 252.639 305.74L252.359 306.45C263.139 310.72 274.349 311.22 285.879 307.98C312.589 319.35 336.989 307.87 336.989 307.87Z" fill="#4A1212"/>
<path d="M103.98 309.22C103.98 309.22 116.36 307.93 131.53 304.46C135.02 303.66 138.2 303.48 141.02 303.65C138.48 302.31 135.93 300.79 133.36 299.1C133.4 299.15 133.42 299.19 133.42 299.19C104.05 302.62 83.7098 284 83.7098 284C83.7098 284 95.9198 286.44 111.44 287.63C115.22 287.92 118.45 288.76 121.2 289.85C117.55 286.71 114.1 283.43 110.91 280.17C81.8598 277.7 65.6598 255.95 65.6598 255.95C63.7598 256.11 90.2098 263.59 99.5898 267.7C78.3498 247.94 69.7198 226.89 69.8798 218.98C69.8798 218.98 77.4398 228.87 88.3098 240.01C99.1798 251.15 97.1898 263.2 97.1898 263.2C96.8898 263 96.6198 262.78 96.3298 262.57C98.7298 265.84 102.45 269.71 105.82 272.23C92.7698 250.77 96.9798 228.39 96.9798 228.39C96.9798 228.39 101.34 240.05 108.52 253.86C114.75 265.86 111.49 275.7 110.53 278.08C114.52 283.37 120.04 288.34 125.81 292.14C110.78 269.94 115.32 245.74 115.32 245.74C115.32 245.74 119.68 257.4 126.86 271.21C132.51 282.09 130.36 291.19 129.19 294.57C133.51 298.68 138.59 301.88 143.72 303.92C127.27 281.28 132.06 255.84 132.06 255.84C132.06 255.84 136.42 267.5 143.6 281.31C149.09 291.88 147.21 300.77 146.03 304.37C161.43 311.43 173.26 312.99 188.33 307.09L188.61 307.8C177.83 312.07 166.62 312.57 155.09 309.33C128.37 320.7 103.98 309.22 103.98 309.22Z" fill="#4A1212"/>
<path d="M317.149 255.57C303.629 270.88 275.339 266.38 260.779 265.04C226.259 241.13 215.149 212.14 243.209 184.95C243.209 184.95 236.369 216.96 250.989 221.14C269.839 223.99 227.949 178.56 264.199 163.35C264.199 163.35 259.379 194.53 268.829 200.06C278.289 205.59 267.959 166.42 273.599 158.8C277.959 152 294.779 159.95 305.399 156.15C310.309 166.33 327.839 172.44 326.189 180.35C324.859 189.74 290.009 210.39 300.629 213.09C311.249 215.78 329.699 190.19 329.699 190.19C344.819 226.55 283.189 229.34 298.559 240.63C311.909 247.91 329.499 220.31 329.499 220.31C329.499 220.31 332.759 236.89 317.149 255.57Z" fill="#4A1212"/>
<path d="M230.42 232.49C237.68 254.6 216.97 279.81 207.27 293.34C163.89 313.5 129 307.72 118.44 264.49C118.44 264.49 145.97 289.65 158.49 277.68C172.15 260.8 103.37 275.8 109.3 231.42C109.3 231.42 137.17 254.12 148.05 248.01C158.94 241.9 114.49 229.5 110.24 219.57C106.07 211.37 123.55 199.44 125.95 186.79C138.8 187.82 154.89 174.11 161.71 180.3C170.17 187.02 170.4 233.16 179.17 224.27C187.93 215.39 173.4 182.51 173.4 182.51C217.84 188.58 185.09 250.77 205.04 242.16C219.88 233.24 202.89 200.05 202.89 200.05C202.89 200.05 221.05 206.4 230.42 232.49Z" fill="#4A1212"/>
<path d="M358.4 336.4C371.18 305.99 21.97 304.51 90.48 345.26C-38.3 359.81 48.1 387.9 156.95 386.17C228.04 385.6 310.38 376.89 281.64 357.16C327.16 353.34 358.4 345.48 358.4 336.4Z" fill="#300C0C"/>
<path d="M281.07 161.82C271.94 217.16 208.94 208.48 220.35 151.45C233.03 81.8703 290.72 92.9103 281.07 161.82Z" fill="#1D2336"/>
<path d="M203.76 335.63C203.76 335.63 191.38 335.15 188.39 337.37C185.39 339.59 180.75 345.1 186.17 353.8L209.08 353.5C209.08 353.5 202.7 345.97 203.76 335.63Z" fill="#E6C5AF"/>
<path d="M185.5 352.62C185.71 353.01 185.92 353.4 186.17 353.8L209.08 353.5C209.08 353.5 208.73 353.08 208.22 352.34L185.5 352.62Z" fill="#DEBFAA"/>
<path d="M154.711 328.11C163.981 324.65 180.001 330.42 187.621 330.54C193.261 331.03 209.471 330.72 215.221 330.59C215.211 329.31 215.021 327.88 214.491 326.37C206.561 326.42 193.491 327.49 188.851 326.77C184.211 326.04 163.741 320.28 153.911 323.72C141.101 327.55 140.221 338.2 147.801 344.06C147.171 340.33 146.391 330.77 154.711 328.11Z" fill="white"/>
<path d="M187.621 330.42C180.001 330.3 163.971 324.54 154.711 327.99C146.391 330.64 145.171 340.46 147.811 344.05C152.641 350.63 164.491 349.66 173.081 350.64C178.281 351.49 188.761 355.34 191.111 353.79C185.011 351.53 186.451 340.45 192.851 338.72C192.851 338.72 192.641 337.35 193.041 336L214.171 335.57C214.621 334.69 215.251 332.83 215.231 330.45C209.471 330.6 193.261 330.91 187.621 330.42Z" fill="#1D2336"/>
<path d="M164.131 332.44C164.131 332.44 161.481 338.31 163.031 347.33" stroke="white" stroke-width="1.1599" stroke-miterlimit="10" stroke-linecap="round"/>
<path d="M168.731 333.411C168.731 333.411 165.691 339.791 167.761 347.331" stroke="white" stroke-width="1.1599" stroke-miterlimit="10" stroke-linecap="round"/>
<path d="M173.411 334.661C173.411 334.661 170.661 339.571 172.591 347.321" stroke="white" stroke-width="1.1599" stroke-miterlimit="10" stroke-linecap="round"/>
<path d="M177.081 335.59C177.081 335.59 175.441 341 176.731 347.33" stroke="white" stroke-width="1.1599" stroke-miterlimit="10" stroke-linecap="round"/>
<path d="M181.381 336.4C181.381 336.4 179.121 343.63 181.381 348.16" stroke="white" stroke-width="1.1599" stroke-miterlimit="10" stroke-linecap="round"/>
<path d="M185.811 337.17C185.811 337.17 182.931 343.58 185.061 348.17" stroke="white" stroke-width="1.1599" stroke-miterlimit="10" stroke-linecap="round"/>
<path d="M130.49 313.3C130.49 313.3 122.37 330.901 119.47 341.571C121.37 346.881 137.15 349.671 142.28 347.321C144.65 337.601 153.17 323.96 153.17 323.96C153.17 323.96 143.25 309.63 130.49 313.3Z" fill="#EDCBB5"/>
<path d="M152.63 323.83C152.63 323.83 144.22 337.46 141.39 347.64C141.71 347.54 142.01 347.44 142.28 347.32C144.65 337.6 153.17 323.96 153.17 323.96L152.63 323.83Z" fill="#DEBFAA"/>
<path d="M238.87 160.51C238.87 160.51 239.87 168.82 231.94 169.98C216.27 228.88 251.59 231.34 264.67 170.44C262.64 169.01 257.91 161.46 260.81 153.69C245.92 161.83 238.87 160.51 238.87 160.51Z" fill="#EDCBB5"/>
<path d="M238.9 160.861C238.95 161.901 238.94 165.241 236.74 167.611C246.44 166.391 255.1 160.331 260.23 155.621C249.78 161.221 244.41 161.601 238.9 160.861Z" fill="#DEBFAA"/>
<path d="M273.581 142.16C247.251 178.76 214.951 158.88 235.731 118.89C252.291 88.4103 293.381 112.98 273.581 142.16Z" fill="#F4CCB9"/>
<path d="M238.87 160.51C238.87 160.51 239.87 168.82 231.94 169.98C216.27 228.88 251.59 231.34 264.67 170.44C262.64 169.01 257.91 161.46 260.81 153.69C245.92 161.83 238.87 160.51 238.87 160.51Z" fill="#EDCBB5"/>
<path d="M238.87 159.921C238.92 160.961 238.93 165.231 236.74 167.611C246.44 166.391 255.1 160.331 260.23 155.621C249.78 161.221 244.38 160.671 238.87 159.921Z" fill="#DEBFAA"/>
<path d="M273.581 142.16C247.251 178.76 214.951 158.88 235.731 118.89C252.291 88.4103 293.381 112.98 273.581 142.16Z" fill="#F4CCB9"/>
<path d="M151.73 327.3C165.26 303.34 177.05 290.98 182.81 271.78C186.46 282.2 212.27 322.11 215.93 324.84L216.03 324.76C230.23 347.96 260.25 342.39 262.14 315.56C262.14 306.9 257.01 300.11 250.66 295.13C230.64 284.44 186.45 205.12 162.02 237.73H162.01V237.74C153.02 256.83 140.83 284.05 128.43 317.74C136.01 313.29 149.53 319.15 151.73 327.3Z" fill="#2F3B59"/>
<path d="M238.94 160.44C238.91 160.43 238.87 160.43 238.87 160.43C238.87 160.43 238.88 160.48 238.89 160.55C238.91 160.51 238.93 160.48 238.94 160.44Z" fill="#F4CCB9"/>
<path d="M239.02 160.53C238.93 160.52 238.87 160.51 238.87 160.51C238.87 160.51 238.87 160.53 238.87 160.54C238.9 160.55 238.92 160.54 239.02 160.53Z" fill="#EDCBB5"/>
<path d="M237.34 274.73C237.34 274.73 236.22 292.13 235.78 302.03C235.78 302.03 266.24 301.32 279.36 308.72C279.36 308.72 258.13 296.44 249.29 275.48C244.92 275.02 238.58 275.1 237.34 274.73Z" fill="#1D2336"/>
<path d="M228.8 201.85C228.8 201.85 242.2 214.46 254.81 202.47C254.81 202.47 240.88 239.65 252.4 278.93C248.05 280.47 240.98 280.15 237.01 280.01C237.01 280.01 224.36 228.06 228.8 201.85Z" fill="white"/>
<path d="M152.19 159.92C152.18 166.43 153.83 218.1 157.3 226.32C158.59 230.66 162.25 234.17 167.37 234.17C194.63 228.68 198.36 223.41 231.69 195.01L231.68 195C244.49 181.3 225.78 160.3 210.69 171.49L210.68 171.48C201.35 183.03 183.44 204.23 175.06 212.88C172.78 208.15 164.36 172.97 163.71 160.68C161.57 160.62 153.38 159.96 152.19 159.92Z" fill="#EDCBB5"/>
<path d="M177.59 231.06C169.1 234.46 159.56 234.92 156.95 224.49C161.12 247.44 199.78 223.12 211.93 212.04C197.36 222.79 191.29 226.57 177.59 231.06Z" fill="#DEBFAA"/>
<path d="M217.77 168.62C202.31 199.52 210.19 247.48 231.42 278.06C236.31 286.17 229.6 304.17 235.86 308.72C241.71 305.8 251.23 303.38 251.23 303.38C232.46 287.17 228.4 186.54 232.77 169.82C223.69 166.61 217.77 168.62 217.77 168.62Z" fill="#EC000A"/>
<path d="M182.641 271.831C182.991 270.271 183.841 268.911 184.891 267.741C185.441 267.171 186.031 266.641 186.701 266.221C187.361 265.791 188.081 265.431 188.881 265.291C187.771 266.411 186.761 267.451 185.751 268.531L184.251 270.171C183.731 270.721 183.231 271.291 182.641 271.831Z" fill="#1D2336"/>
<path d="M182.18 263.71C182.43 265.12 182.49 266.44 182.56 267.77L182.63 269.76C182.64 270.43 182.68 271.1 182.63 271.83C181.8 270.65 181.47 269.22 181.4 267.82C181.38 267.12 181.4 266.42 181.53 265.72C181.66 265.04 181.84 264.35 182.18 263.71Z" fill="#1D2336"/>
<path d="M148.49 357C133.47 362.8 92.4001 370.65 75.2101 364.07C73.8701 367.32 74.2101 371.7 75.0801 374C78.7301 380.85 115.48 376.48 126.99 371.93C132.54 370.42 147.6 369.55 149.2 367.33C150.76 362.84 148.59 359.7 148.49 357Z" fill="white"/>
<path d="M107.18 366.27C122.22 364.72 141.46 359.15 148.49 357C147.69 349.23 144.71 340.34 144.71 340.34C141.27 348.5 132.31 345.11 132.31 345.11C130.57 339.22 119.55 334.66 119.55 334.66C119.55 334.66 111.3 343.02 100.8 350.61C90.2 358.27 76.99 360.91 75.21 364.07C80.94 365.4 93.46 367.69 107.18 366.27Z" fill="#1D2336"/>
<path d="M94.1299 355.27C94.1299 355.27 96.8599 358.88 102.66 359.62" stroke="white" stroke-width="1.1599" stroke-miterlimit="10" stroke-linecap="round"/>
<path d="M99.6299 351.97C99.6299 351.97 102.34 355.5 107.56 355.96" stroke="white" stroke-width="1.1599" stroke-miterlimit="10" stroke-linecap="round"/>
<path d="M104.68 348.29C104.68 348.29 107.52 351.96 112.04 352.74" stroke="white" stroke-width="1.1599" stroke-miterlimit="10" stroke-linecap="round"/>
<path d="M109.35 344.57C109.35 344.57 111.49 348.69 116.52 349.02" stroke="white" stroke-width="1.1599" stroke-miterlimit="10" stroke-linecap="round"/>
<path d="M112.939 341.52C112.939 341.52 115.299 345.41 120.429 346.16" stroke="white" stroke-width="1.1599" stroke-miterlimit="10" stroke-linecap="round"/>
<path d="M117.33 337.51C117.33 337.51 120.46 341.38 124.83 342.65" stroke="white" stroke-width="1.1599" stroke-miterlimit="10" stroke-linecap="round"/>
<path d="M217.77 168.62C215.15 169 212.73 170.01 210.69 171.5L210.68 171.49C205.45 176.64 203.02 181.62 197.36 187.79L206.74 216.38C207.53 215.75 208.37 215.09 209.2 214.4C208.46 191.29 217.77 168.62 217.77 168.62Z" fill="#EC000A"/>
<path d="M209.63 202.47C209.87 204.51 209.8 206.51 209.7 208.5C209.58 210.5 209.4 212.45 209.1 214.48C208.77 213.5 208.63 212.48 208.56 211.47C208.48 210.46 208.5 209.44 208.54 208.44C208.61 207.43 208.71 206.43 208.88 205.43C209.06 204.43 209.28 203.44 209.63 202.47Z" fill="#C94D52"/>
<path d="M301.211 337.8C293.481 337.03 300.441 325.43 286.131 312.67C276.281 302.65 251.121 300.97 241.331 305.03C224.421 310.88 218.551 325.98 203.281 334.67C198.931 339.59 204.591 354.24 209.861 353.96C214.491 354.39 219.751 353.05 224.331 351.94C233.551 349.35 250.901 355.36 257.041 344.67C256.781 350.49 296.741 354.14 312.961 336.91C311.851 337.06 307.751 338.45 301.211 337.8Z" fill="#384669"/>
<path d="M293.8 345.82C263.65 353.49 257.03 343.5 257.03 343.5C250.89 354.19 233.54 348.18 224.32 350.77C218.94 351.62 212.64 354.49 207.33 353.03C212.44 355.6 218.95 352.9 224.32 351.93C233.54 349.34 250.89 355.35 257.03 344.66C256.77 350.48 296.73 354.13 312.95 336.9C305.64 340.9 300.7 344.92 293.8 345.82Z" fill="#064263"/>
<path d="M257.03 344.661C257.61 343.631 258.27 342.801 258.98 341.981C259.71 341.181 260.47 340.401 261.49 339.791C261.36 340.381 261.12 340.901 260.83 341.391C260.55 341.881 260.21 342.331 259.84 342.761C259.09 343.571 258.19 344.341 257.03 344.661Z" fill="#064263"/>
<path d="M253.95 338.48C254.5 338.79 254.95 339.2 255.35 339.64C255.76 340.08 256.09 340.58 256.39 341.1C256.67 341.63 256.92 342.19 257.04 342.8C257.17 343.4 257.22 344.05 257.02 344.65C256.74 344.09 256.46 343.61 256.19 343.12L255.37 341.66C254.85 340.67 254.31 339.68 253.95 338.48Z" fill="#064263"/>
<path d="M269.06 339.791C268.35 340.651 267.5 341.371 266.6 342.021C265.7 342.671 264.73 343.221 263.72 343.691C261.7 344.601 259.43 345.181 257.21 344.881C258.28 344.551 259.3 344.241 260.3 343.871C261.29 343.481 262.28 343.091 263.24 342.641C265.18 341.761 267.06 340.751 269.06 339.791Z" fill="#064263"/>
<path d="M297.58 191.49C299.03 207.54 290.77 230.7 297.73 255.44C304.69 280.19 318.76 307.64 313.27 337.79C286.94 342.84 305.12 331.66 286.13 312.66C271.82 299.9 248.41 312.87 240.02 244.22C235.43 222.02 256.26 185.05 264.67 170.35C264.67 170.36 294.91 177.86 297.58 191.49Z" fill="#EC000A"/>
<path d="M215.54 316.13C234.84 301.23 266.02 294.19 281.43 274.42C283.65 273.91 325.2 172.74 276.18 181.26C271.37 183.27 268.09 187.39 266.93 192.09C252.55 265.81 278.78 260.43 208.89 302.6L215.54 316.13Z" fill="#F4CCB9"/>
<path d="M281.43 273.27C265.83 293.18 234.37 300.07 215.54 316.13C234.84 301.23 266.02 294.19 281.43 274.42C283.18 271.26 289.54 257.78 294.25 241.29C289.42 257.17 283.11 270.23 281.43 273.27Z" fill="#DEBFAA"/>
<path d="M297.62 190.91C294.35 180.76 284.13 177.55 275.62 181.17C260.74 188.69 265.06 207.64 262.22 225.73C264.22 226.62 278.73 232.66 296.74 234.11C300.19 219.69 301.45 203.82 297.62 190.91Z" fill="#EC000A"/>
<path d="M262.23 225.73C262.1 224.12 262.15 222.51 262.27 220.91C262.39 219.31 262.62 217.71 262.91 216.13C263.53 212.98 264.45 209.84 266.06 207.03L264.99 211.69C264.67 213.24 264.34 214.79 264.05 216.35C263.44 219.46 262.91 222.58 262.23 225.73Z" fill="#C94D52"/>
<path d="M209.19 302.42C201.95 304.73 194.49 304.44 188.08 309.06C186.64 309.76 185.28 310.83 179.38 312.13C178.26 315.1 186.55 314.19 189.6 313.11C192.65 312.03 191.79 313.41 191.79 313.41C191.26 314.02 187.41 318.58 186.82 318.87C183.72 320.81 180.91 322.52 177.29 325.13C176.05 326.06 172.45 329.03 172.45 329.03C171.08 330.16 172.64 332.42 174.21 331.49C175.93 330.82 183.32 326.04 184.13 325.41C191.06 320.27 191.79 322.66 185.22 327.13C182.5 329.11 176.47 333.47 173.82 335.44C172.35 336.66 174.29 339.19 175.87 338.19C179.52 335.96 182.7 334.01 187.12 330.79C188.66 329.62 192.95 325.91 193.63 326.58C194.52 327.48 190.89 330.26 190.89 330.26C188.03 332.71 182.25 337.69 179.41 340.14C176.68 348.2 191.14 334.99 192.56 333.94C192.65 333.86 197.38 329.5 197.87 329.9C198.15 334.41 188.39 337.74 189.63 342.11C192.97 345.79 211.88 319.25 215.69 315.99L209.19 302.42Z" fill="#F4CCB9"/>
<path d="M259.92 102.57C240.31 97.0103 231.7 121.05 231.15 129.76C240.05 110.29 255.19 108.47 257.79 107.98C278.83 144.16 269.2 157.57 264.66 169.49C273.35 163.56 285.24 159.2 284.66 129.63C283.51 100.82 264.91 103.82 259.92 102.57Z" fill="#1D2336"/>
<path d="M249.951 127.69C249.611 129.02 249.121 130.29 248.541 131.53C247.961 132.77 247.281 133.96 246.471 135.09C246.051 135.64 245.6 136.19 245.05 136.68C244.9 136.8 244.771 136.92 244.621 137.03L244.121 137.34C243.851 137.49 243.641 137.61 243.471 137.78C243.321 137.95 243.251 138.16 243.231 138.41C243.231 138.67 243.311 138.96 243.431 139.25C243.681 139.83 244.061 140.39 244.481 140.93C243.881 140.59 243.351 140.13 242.911 139.55C242.701 139.25 242.521 138.91 242.431 138.5C242.361 138.09 242.441 137.6 242.691 137.22C242.811 137.04 242.961 136.88 243.121 136.73L243.601 136.39L243.941 136.14C244.051 136.04 244.16 135.93 244.27 135.82C244.71 135.39 245.11 134.88 245.49 134.35C246.27 133.3 246.98 132.17 247.71 131.05C248.42 129.94 249.151 128.8 249.951 127.69Z" fill="#CFAB93"/>
<path d="M239.99 142.99C239.99 142.99 244.93 147.5 250.5 144.55C248.06 150.66 239.22 151.72 239.99 142.99Z" fill="white"/>
<path d="M254.17 131.48C253.86 133.4 256.88 133.85 257.13 131.92C257.45 130 254.43 129.55 254.17 131.48Z" fill="#192B3D"/>
<path d="M240.181 125.75C239.871 127.67 242.891 128.12 243.141 126.19C243.461 124.27 240.441 123.83 240.181 125.75Z" fill="#192B3D"/>
<path d="M253.771 126.97C254.661 126.6 255.631 126.47 256.591 126.48C257.561 126.49 258.531 126.68 259.461 127.03C260.381 127.39 261.231 127.98 261.901 128.72C262.601 129.44 262.991 130.39 263.191 131.31C262.521 130.61 261.971 129.92 261.241 129.42C260.541 128.92 259.811 128.46 259.001 128.17C257.401 127.52 255.651 127.23 253.771 126.97Z" fill="#1D2336"/>
<path d="M237.45 120.44C238.34 120.07 239.31 119.94 240.27 119.95C241.24 119.96 242.21 120.15 243.14 120.5C244.06 120.86 244.91 121.45 245.58 122.19C246.28 122.91 246.67 123.86 246.87 124.78C246.2 124.08 245.65 123.39 244.92 122.89C244.22 122.39 243.49 121.93 242.68 121.64C241.08 120.99 239.33 120.7 237.45 120.44Z" fill="#1D2336"/>
<path d="M161.83 164.09C161.83 164.09 168.56 153.88 167.45 145.83C165.88 137.01 161.3 132.43 160.11 136.71C150.47 112.33 147.9 122.08 155.16 138.83C155.16 138.83 153.02 139.61 152.45 140.87C144.11 147.24 151.22 156.28 152.09 163.21C152.12 165.54 158.83 167.65 161.83 164.09Z" fill="#EDCBB5"/>
<path d="M155.159 138.83C155.879 138.51 156.749 138.56 157.449 138.94C158.159 139.31 158.729 139.89 159.209 140.52C160.139 141.81 160.749 143.28 161.189 144.79C161.609 146.31 161.869 147.88 161.739 149.5C161.709 149.9 161.619 150.31 161.469 150.72C161.299 151.11 160.989 151.56 160.459 151.67C159.929 151.78 159.499 151.56 159.139 151.35C158.779 151.13 158.479 150.85 158.179 150.58L158.679 150.33C158.719 150.73 158.669 151.16 158.469 151.54C158.269 151.92 157.939 152.21 157.549 152.37C157.159 152.53 156.719 152.55 156.319 152.42C155.919 152.3 155.569 152.02 155.339 151.69L155.819 151.61C155.659 152.07 155.509 152.56 155.069 152.96C154.849 153.17 154.439 153.22 154.169 153.1C153.889 153 153.679 152.83 153.499 152.66C152.789 151.96 152.319 151.14 151.819 150.34L150.369 147.93C149.849 147.17 149.369 146.31 148.529 145.87C149.419 146.23 149.979 147.08 150.549 147.81C151.109 148.57 151.609 149.36 152.129 150.15C152.649 150.92 153.169 151.72 153.829 152.31C154.159 152.61 154.529 152.77 154.759 152.55C155.019 152.32 155.189 151.87 155.319 151.45V151.44C155.359 151.3 155.509 151.22 155.659 151.27C155.719 151.29 155.769 151.33 155.799 151.37C156.139 151.87 156.809 152.08 157.359 151.84C157.919 151.62 158.209 151.01 158.119 150.4C158.099 150.24 158.209 150.09 158.369 150.07C158.459 150.06 158.539 150.08 158.609 150.14L158.629 150.15C158.909 150.4 159.189 150.64 159.489 150.83C159.789 151 160.119 151.15 160.369 151.08C160.889 150.99 161.139 150.15 161.209 149.44C161.359 147.95 161.109 146.4 160.739 144.93C160.369 143.45 159.829 141.98 158.979 140.71C158.549 140.08 158.049 139.49 157.399 139.1C156.729 138.7 155.909 138.57 155.159 138.83Z" fill="#DEBFAA"/>
<path d="M158.39 150.36C158.31 149.34 158.13 148.34 157.9 147.37C157.66 146.4 157.33 145.46 156.88 144.59C156.42 143.72 155.8 142.95 155.07 142.31C154.33 141.65 153.41 141.25 152.46 140.87C153.46 141.02 154.51 141.28 155.36 141.93C156.22 142.54 156.92 143.37 157.42 144.3C158.36 146.18 158.67 148.33 158.39 150.36Z" fill="#DEBFAA"/>
<path d="M150.24 143.15C151.12 143.28 151.96 143.71 152.66 144.27C153.37 144.83 153.95 145.56 154.41 146.34C154.86 147.13 155.15 147.99 155.35 148.86C155.45 149.3 155.49 149.74 155.55 150.18C155.56 150.63 155.58 151.07 155.56 151.51C155.44 151.08 155.36 150.65 155.25 150.23C155.12 149.81 155.02 149.39 154.89 148.98C154.6 148.17 154.31 147.36 153.88 146.63C153.46 145.89 152.96 145.21 152.35 144.61C151.73 144.04 151.04 143.5 150.24 143.15Z" fill="#DEBFAA"/>
<path d="M160.11 136.7C160.01 136.73 160.08 136.86 160.1 136.94C160.13 137.03 160.16 137.12 160.2 137.2C160.28 137.37 160.36 137.55 160.45 137.72L160.96 138.75C161.31 139.43 161.63 140.13 161.96 140.83C162.27 141.53 162.59 142.24 162.86 142.96C163 143.32 163.13 143.69 163.25 144.05L163.41 144.61L163.48 144.9C163.49 144.95 163.5 145 163.5 145.05C163.5 145.08 163.51 145.2 163.44 145.15C163.52 145.14 163.42 144.99 163.39 144.93L163.26 144.67L162.98 144.17L162.43 143.15C162.07 142.47 161.73 141.78 161.41 141.08C161.1 140.38 160.79 139.67 160.53 138.94C160.4 138.58 160.28 138.21 160.17 137.83C160.12 137.64 160.08 137.45 160.04 137.25C160.02 137.15 160.01 137.05 160 136.96C160.02 136.88 159.99 136.71 160.11 136.7Z" fill="#DEBFAA"/>
<path d="M141.05 103.28C139.96 167.33 44.6798 167.32 43.5898 103.28C44.6898 39.2303 139.96 39.2403 141.05 103.28Z" fill="#300C0C"/>
<path d="M121.1 135.22C116.15 132.52 109.78 116.76 104.91 114.54C103.93 115.2 101.93 116.54 100.94 117.2C101.31 121.82 112.39 133.82 114.55 138.37C114.75 139.6 114.48 140.89 116.05 141.23C117.81 141.27 124.57 137.29 121.1 135.22Z" fill="#1D2336"/>
<mask id="mask0_946_6130" style="mask-type:luminance" maskUnits="userSpaceOnUse" x="100" y="114" width="23" height="28">
<path d="M121.1 135.22C116.15 132.52 109.78 116.76 104.91 114.54C103.93 115.2 101.93 116.54 100.94 117.2C101.31 121.82 112.39 133.82 114.55 138.37C114.75 139.6 114.48 140.89 116.05 141.23C117.81 141.27 124.57 137.29 121.1 135.22Z" fill="white"/>
</mask>
<g mask="url(#mask0_946_6130)">
<path d="M110.43 115.55C107.66 119.14 103.67 121.29 99.5403 121.75C99.5003 120.96 99.4404 120.18 99.3604 119.4C102.86 118.99 106.28 117.13 108.65 114C109.26 114.5 109.85 115.02 110.43 115.55Z" fill="#2F3B59"/>
<path d="M114.321 117.94C110.911 122.57 105.901 125.46 100.581 126.19C100.581 125.39 100.561 124.6 100.521 123.81C105.201 123.09 109.621 120.47 112.601 116.27C113.191 116.81 113.761 117.36 114.321 117.94Z" fill="#2F3B59"/>
<path d="M118.2 120.32C114.15 125.99 108.12 129.61 101.61 130.63C101.65 129.82 101.67 129.02 101.67 128.22C107.53 127.19 112.96 123.8 116.54 118.55C117.12 119.12 117.66 119.71 118.2 120.32Z" fill="#2F3B59"/>
<path d="M122.09 122.7C117.41 129.4 110.34 133.77 102.65 135.06C102.73 134.24 102.8 133.43 102.83 132.62C109.86 131.28 116.3 127.13 120.5 120.81C121.04 121.43 121.57 122.06 122.09 122.7Z" fill="#2F3B59"/>
<path d="M125.971 125.08C120.651 132.82 112.561 137.93 103.681 139.5C103.801 138.68 103.911 137.85 103.991 137.03C112.201 135.39 119.641 130.46 124.451 123.1C124.971 123.74 125.481 124.4 125.971 125.08Z" fill="#2F3B59"/>
<path d="M129.85 127.47C123.9 136.25 114.78 142.1 104.71 143.95C104.87 143.12 105.02 142.28 105.14 141.45C114.53 139.5 122.98 133.81 128.4 125.38C128.9 126.05 129.38 126.75 129.85 127.47Z" fill="#2F3B59"/>
</g>
<path d="M84.49 66.4203C75.33 62.0203 61.78 70.5703 62.55 81.7803C61.92 96.9303 79.95 113.51 94.18 103.06C106.96 92.2303 98.94 70.7503 84.49 66.4203ZM98.37 90.4203C94.42 114.78 63.55 101.89 64.79 82.2603C67.15 56.9103 100.88 68.8003 98.37 90.4203Z" fill="#EC000A"/>
<mask id="mask1_946_6130" style="mask-type:luminance" maskUnits="userSpaceOnUse" x="65" y="67" width="34" height="37">
<path d="M84.1496 68.6901C101.48 73.0101 104.46 105.22 82.7096 103.85C59.7296 100.89 58.2496 61.89 84.1496 68.6901Z" fill="white"/>
</mask>
<g mask="url(#mask1_946_6130)">
<path d="M84.6094 114.62L55.3994 74.21" stroke="#D4AC53" stroke-width="0.3425" stroke-miterlimit="10" stroke-linecap="round"/>
<path d="M86.7198 113.05L57.5098 72.6499" stroke="#D4AC53" stroke-width="0.3425" stroke-miterlimit="10" stroke-linecap="round"/>
<path d="M88.8391 111.48L59.6191 71.0801" stroke="#D4AC53" stroke-width="0.3425" stroke-miterlimit="10" stroke-linecap="round"/>
<path d="M90.9495 109.92L61.7295 69.5098" stroke="#D4AC53" stroke-width="0.3425" stroke-miterlimit="10" stroke-linecap="round"/>
<path d="M93.0598 108.35L63.8398 67.9502" stroke="#D4AC53" stroke-width="0.3425" stroke-miterlimit="10" stroke-linecap="round"/>
<path d="M95.1692 106.78L65.9492 66.3799" stroke="#D4AC53" stroke-width="0.3425" stroke-miterlimit="10" stroke-linecap="round"/>
<path d="M97.2793 105.22L68.0693 64.8101" stroke="#D4AC53" stroke-width="0.3425" stroke-miterlimit="10" stroke-linecap="round"/>
<path d="M99.3897 103.65L70.1797 63.25" stroke="#D4AC53" stroke-width="0.3425" stroke-miterlimit="10" stroke-linecap="round"/>
<path d="M101.499 102.08L72.2891 61.6802" stroke="#D4AC53" stroke-width="0.3425" stroke-miterlimit="10" stroke-linecap="round"/>
<path d="M103.619 100.52L74.3994 60.1099" stroke="#D4AC53" stroke-width="0.3425" stroke-miterlimit="10" stroke-linecap="round"/>
<path d="M105.73 98.9498L76.5098 58.5498" stroke="#D4AC53" stroke-width="0.3425" stroke-miterlimit="10" stroke-linecap="round"/>
<path d="M107.839 97.38L78.6191 56.98" stroke="#D4AC53" stroke-width="0.3425" stroke-miterlimit="10" stroke-linecap="round"/>
<path d="M51.2295 86.68C56.1495 83.12 87.5495 60.42 91.6295 57.46" stroke="#D4AC53" stroke-width="0.3425" stroke-miterlimit="10" stroke-linecap="round"/>
<path d="M52.7998 88.7901L93.1998 59.5801" stroke="#D4AC53" stroke-width="0.3425" stroke-miterlimit="10" stroke-linecap="round"/>
<path d="M54.3691 90.8999L94.7691 61.6899" stroke="#D4AC53" stroke-width="0.3425" stroke-miterlimit="10" stroke-linecap="round"/>
<path d="M55.9297 93.0198L96.3397 63.7998" stroke="#D4AC53" stroke-width="0.3425" stroke-miterlimit="10" stroke-linecap="round"/>
<path d="M57.499 95.1302L97.899 65.9102" stroke="#D4AC53" stroke-width="0.3425" stroke-miterlimit="10" stroke-linecap="round"/>
<path d="M59.0693 97.24L99.4693 68.02" stroke="#D4AC53" stroke-width="0.3425" stroke-miterlimit="10" stroke-linecap="round"/>
<path d="M60.6299 99.3501L101.04 70.1401" stroke="#D4AC53" stroke-width="0.3425" stroke-miterlimit="10" stroke-linecap="round"/>
<path d="M62.1992 101.46L102.599 72.25" stroke="#D4AC53" stroke-width="0.3425" stroke-miterlimit="10" stroke-linecap="round"/>
<path d="M63.7695 103.57L104.17 74.3599" stroke="#D4AC53" stroke-width="0.3425" stroke-miterlimit="10" stroke-linecap="round"/>
<path d="M65.3291 105.69L105.739 76.4697" stroke="#D4AC53" stroke-width="0.3425" stroke-miterlimit="10" stroke-linecap="round"/>
<path d="M66.8994 107.8L107.299 78.5801" stroke="#D4AC53" stroke-width="0.3425" stroke-miterlimit="10" stroke-linecap="round"/>
<path d="M68.46 109.91L108.87 80.6899" stroke="#D4AC53" stroke-width="0.3425" stroke-miterlimit="10" stroke-linecap="round"/>
<path d="M70.0293 112.02L110.439 82.8101" stroke="#D4AC53" stroke-width="0.3425" stroke-miterlimit="10" stroke-linecap="round"/>
<path d="M71.5996 114.13L112 84.9199" stroke="#D4AC53" stroke-width="0.3425" stroke-miterlimit="10" stroke-linecap="round"/>
</g>
<path d="M97.4705 99.5203C97.4705 99.5203 97.8305 102.03 98.5705 105.18C96.5305 104.56 94.7005 106.56 94.5805 108.15C93.0505 107.01 91.4705 106.03 90.0405 105.52C90.0405 105.52 87.2705 106.18 84.2305 106.38C84.2305 106.38 95.5805 109.96 100.97 117.22L104.94 114.58C104.94 114.58 99.0005 103.79 100.35 92.3403C100.35 92.3403 99.8005 95.2103 97.4705 99.5203ZM96.0205 109.29C96.3905 107.94 96.6705 106.25 99.0105 106.99C99.7605 109.83 103.55 114.09 102.34 114.9C101.34 115.58 99.3305 111.98 96.0205 109.29Z" fill="#EC000A"/>
<g opacity="0.8">
<path d="M99.0605 99.1104C99.5305 101.26 100.031 103.4 100.661 105.5C100.951 106.56 101.301 107.6 101.651 108.63C102.001 109.67 102.421 110.68 102.831 111.71C101.731 109.8 100.961 107.71 100.331 105.6C99.7406 103.47 99.2605 101.31 99.0605 99.1104Z" fill="white"/>
</g>
<g opacity="0.8">
<path d="M88.5801 106.88C90.6301 107.7 92.5601 108.79 94.4201 109.97C96.2601 111.19 98.0301 112.53 99.5501 114.14C98.6901 113.45 97.8401 112.76 96.9501 112.12C96.0601 111.48 95.1701 110.84 94.2401 110.26C92.4101 109.05 90.5001 107.96 88.5801 106.88Z" fill="white"/>
</g>
<g opacity="0.8">
<path d="M63.7305 81.9303C63.8205 79.5603 64.4205 77.0503 65.4205 74.8103C66.4305 72.5503 67.9805 70.5003 70.0205 69.0503C72.0705 67.6103 74.5405 66.8503 77.0005 66.7003C79.4805 66.5403 81.9505 66.9103 84.3205 67.5503C81.9205 67.0303 79.4505 66.7603 77.0205 66.9603C74.5905 67.1603 72.1905 67.9003 70.2105 69.3303C68.2105 70.7203 66.7005 72.7303 65.6505 74.9203C65.1205 76.0203 64.7105 77.1803 64.3805 78.3603C64.0705 79.5203 63.8105 80.8003 63.7305 81.9303Z" fill="white"/>
</g>
<path d="M77.3098 76.0001C87.5898 72.0201 93.5998 88.2501 83.2098 91.9301C72.9298 95.9101 66.9198 79.6801 77.3098 76.0001Z" fill="#D1E323"/>
<path d="M77.3497 76.1202C87.4697 72.2002 93.3997 88.1802 83.1597 91.8102C73.0397 95.7302 67.1197 79.7502 77.3497 76.1202Z" fill="#FDC453"/>
<g opacity="0.7">
<path d="M80.8192 92.4401C81.0392 92.4201 81.2592 92.4001 81.4792 92.3701C81.2492 89.8101 81.5892 84.2001 88.1992 80.9601C88.1192 80.7401 88.0292 80.5301 87.9292 80.3301C81.0192 83.7201 80.6092 89.7101 80.8192 92.4401Z" fill="white"/>
<path d="M73.3494 88.91C73.6194 89.29 73.9194 89.64 74.2394 89.96C73.8694 88.41 72.2194 79.73 80.5494 75.48C73.3794 76.43 72.7194 86.54 73.3494 88.91Z" fill="white"/>
</g>
<path d="M97.8202 217.32C100.83 281.31 5.7502 287.41 0.560203 223.57C-2.4498 159.58 92.6302 153.48 97.8202 217.32Z" fill="#300C0C"/>
<path d="M64.3901 229.06C64.4001 228.62 64.4001 228.24 64.3901 227.92C64.3701 227.94 64.3501 227.97 64.3301 227.99C64.3301 227.99 64.3701 228.41 64.3901 229.06Z" fill="#F2D3BA"/>
<path d="M32.2695 229.41C32.2695 229.45 32.2695 229.5 32.2695 229.54C32.2695 229.46 32.2795 229.42 32.2795 229.42C32.2695 229.42 32.2695 229.42 32.2695 229.41Z" fill="#F2D3BA"/>
<path d="M67.6496 208.3C67.5296 182.09 27.6796 182.1 27.5696 208.3C27.5696 209.6 26.7196 222.72 32.2396 228.66C32.2396 228.66 31.5996 237.12 38.3596 238.36C42.2596 238.86 44.9696 235.4 49.0996 235.55C52.3696 235.67 54.7596 238.6 58.6396 237.99C65.4296 236.93 64.2896 227.23 64.2896 227.23C68.8096 222.35 67.6496 209.09 67.6496 208.3Z" fill="#DEBFAA"/>
<path d="M66.7091 201.92C61.3691 183.74 33.8891 183.77 28.5791 201.95C28.6991 201.92 28.8191 201.91 28.9391 201.9C34.4691 185.16 60.6991 185.09 66.3291 201.79C66.4491 201.83 66.5891 201.87 66.7091 201.92Z" fill="#C2A996"/>
<path d="M42.0996 237.45C41.8696 237.46 47.4896 239.56 54.7096 237.5C50.5696 235.06 46.0896 234.87 42.0996 237.45Z" fill="#FFECDE"/>
<path d="M38.2494 238.26C42.1294 238.85 44.9194 235.45 49.0494 235.7C52.3194 235.89 54.6394 238.88 58.5394 238.36C65.3494 237.45 64.4294 227.73 64.4294 227.73C64.2494 221.76 55.2394 219.24 52.7094 211.78C51.3794 207.58 55.8494 185.01 43.8194 193.13C40.4294 198.62 43.6794 203.35 43.0794 211.73C42.6794 217.28 33.0794 224.59 32.3594 228.43C31.8194 231.24 31.5194 236.86 38.2494 238.26Z" fill="#FFFAF7"/>
<path d="M52.2201 208.2C52.2301 205.76 52.7201 203.09 52.6901 200.28C52.6801 203.09 52.1901 205.77 52.2201 208.2Z" fill="#EDE9E6"/>
<path d="M58.5297 238.03C54.6397 238.55 52.3197 235.57 49.0397 235.37C44.9097 235.13 42.1197 238.53 38.2397 237.93C33.2697 236.9 32.1397 233.56 32.0997 230.75C32.0597 233.62 33.0797 237.17 38.2397 238.25C42.1197 238.84 44.9097 235.44 49.0397 235.69C58.3197 239.49 64.0297 240.12 64.4597 228.69C64.4397 231.38 63.7997 237.33 58.5297 238.03Z" fill="#EDE9E6"/>
<path d="M42.25 198.65C42.2 201.72 43.11 205.03 43.15 209.34C43.16 205.03 42.27 201.71 42.25 198.65Z" fill="#EDE9E6"/>
<path d="M39.4893 211.95C37.9993 217.79 34.4593 216.97 31.4893 212.29C31.6593 212.12 31.7793 212 31.7793 212C32.9393 213.97 37.2493 215.42 39.4893 211.95Z" fill="#C2A996"/>
<path d="M39.0801 211.95C37.5301 214.44 33.6201 214.42 32.0801 211.95C33.6301 209.46 37.5401 209.48 39.0801 211.95Z" fill="#EBEFF8" stroke="black" stroke-width="0.6362" stroke-miterlimit="10" stroke-linecap="round" stroke-linejoin="round"/>
<path d="M37.4605 211.95C37.5005 214.39 33.6705 214.39 33.7005 211.95C33.6605 209.51 37.4905 209.51 37.4605 211.95Z" fill="#17110C"/>
<path d="M33.4297 210.56C33.1097 210.96 32.7397 211.29 32.3897 211.64C32.0097 211.96 31.6597 212.3 31.2197 212.58C31.4597 212.12 31.8097 211.76 32.1697 211.41C32.5497 211.08 32.9497 210.75 33.4297 210.56Z" fill="black"/>
<path d="M34.9298 211.21C34.9298 211.45 34.5598 211.45 34.5598 211.21C34.5498 210.97 34.9298 210.97 34.9298 211.21Z" fill="#F3F9FF"/>
<path d="M55.3994 211.95C56.8894 217.79 60.4294 216.97 63.3994 212.29C63.2294 212.12 63.1094 212 63.1094 212C61.9394 213.97 57.6294 215.42 55.3994 211.95Z" fill="#C2A996"/>
<path d="M55.7998 211.95C57.3498 214.44 61.2598 214.42 62.7998 211.95C61.2498 209.46 57.3398 209.48 55.7998 211.95Z" fill="#EBEFF8" stroke="black" stroke-width="0.6362" stroke-miterlimit="10"/>
<path d="M57.4202 211.95C57.3802 214.39 61.2102 214.39 61.1802 211.95C61.2202 209.51 57.3902 209.51 57.4202 211.95Z" fill="#17110C"/>
<path d="M61.4502 210.56C61.9302 210.75 62.3202 211.08 62.7102 211.4C63.0702 211.75 63.4202 212.12 63.6602 212.57C63.2302 212.29 62.8702 211.95 62.4902 211.63C62.1402 211.29 61.7702 210.96 61.4502 210.56Z" fill="black"/>
<path d="M58.1992 211.21C58.1992 211.45 58.5692 211.45 58.5692 211.21C58.5792 210.97 58.1992 210.97 58.1992 211.21Z" fill="#F3F9FF"/>
<path d="M31.0701 200.68C31.0701 200.68 25.4501 203.48 23.9401 206.25C22.4401 209.02 19.4301 219.85 20.0401 223.06C20.3301 230.04 18.7301 238.1 21.5701 245.16C21.6901 246.46 20.5101 247.61 22.9801 250.18C28.7001 256.91 39.1101 248.93 35.5801 239.69C33.6201 228.27 24.8001 209.77 31.0701 200.68Z" fill="#DEBFAA"/>
<path d="M23.6198 250.119C21.1498 247.549 22.3298 246.399 22.2098 245.099C21.8998 241.809 20.7598 241.539 20.4398 237.909C21.0898 226.319 18.4898 209.769 28.8598 201.919C18.0798 207.389 20.2998 227.479 19.7998 237.969C20.1198 241.599 21.2698 241.859 21.5698 245.159C20.2198 247.919 24.8098 253.639 28.4998 252.759C26.6498 252.809 25.2098 251.769 23.6198 250.119Z" fill="#C2A996"/>
<path d="M36.23 239.63C34.28 228.2 25.32 209.49 31.55 200.37C24.72 203.19 31.96 224.56 31.75 224.5C31.96 229.76 42.92 250.23 28.5 252.76C34.35 251.77 38.52 247.36 36.23 239.63Z" fill="#C2A996"/>
<path d="M64.0898 200.74C64.0898 200.74 69.9398 203.02 71.6898 205.64C73.4398 208.26 77.4098 218.78 77.0998 222.03C77.4398 229.01 79.7698 236.89 77.5798 244.17C77.5798 245.47 78.8498 246.51 76.6298 249.3C71.5398 256.52 60.4598 249.52 63.1298 240C64.0498 228.45 71.1598 209.23 64.0898 200.74Z" fill="#DEBFAA"/>
<path d="M75.9904 249.31C78.2204 246.53 76.9404 245.49 76.9404 244.18C76.9504 240.87 78.0704 240.51 78.0504 236.86C76.3504 225.38 77.4404 208.66 66.4004 201.78C77.6404 206.25 77.2404 226.46 78.6904 236.86C78.7004 240.5 77.5804 240.87 77.5704 244.18C79.1604 246.8 75.1204 252.92 71.3604 252.38C73.2204 252.26 74.5504 251.1 75.9904 249.31Z" fill="#C2A996"/>
<path d="M62.4801 240C63.3901 228.44 70.6201 208.99 63.5801 200.47C70.6301 202.66 65.3601 224.6 65.5701 224.52C65.8301 229.77 56.7801 251.16 71.3701 252.37C65.4601 251.93 60.9001 247.91 62.4801 240Z" fill="#C2A996"/>
<path d="M54.3193 227.25C51.6193 233.99 45.1793 233.91 42.4893 227.25C39.5893 220 57.2293 219.98 54.3193 227.25Z" fill="black"/>
<path d="M48.409 235.43L48.0889 232.22C48.0689 232.04 48.1989 231.89 48.3789 231.87C48.5589 231.85 48.709 231.98 48.729 232.16C48.729 232.18 48.729 232.2 48.729 232.22L48.409 235.43Z" fill="black"/>
<path d="M267.43 48.7901C266.34 112.84 171.06 112.83 169.97 48.7901C171.06 -15.2599 266.34 -15.2499 267.43 48.7901Z" fill="#300C0C"/>
<path d="M254.57 42.3199L254.104 42.4331L254.408 43.6867L254.874 43.5735L254.57 42.3199Z" fill="#999999"/>
<path d="M255.73 44.1102C256.04 45.3102 254.15 45.7602 253.88 44.5602C253.57 43.3602 255.46 42.9102 255.73 44.1102Z" fill="#0271B0"/>
<path d="M255.31 44.2101C255.48 44.8701 254.44 45.1201 254.3 44.4601C254.13 43.8001 255.16 43.5501 255.31 44.2101Z" fill="black"/>
<path d="M260.97 39.5002C256.67 43.0602 227.41 50.5302 223.96 51.8002C210.15 55.1902 199.32 59.7302 181.8 58.5602C181.8 58.5602 178.51 58.1002 177.89 56.8602C191.2 50.8002 233.44 39.7102 252.64 34.9502C254.03 34.4102 265.61 36.1602 260.97 39.5002Z" fill="white"/>
<path d="M223.159 53.3402C222.959 52.5102 223.079 51.7702 223.419 51.6802C216.559 52.5302 217.629 57.0802 224.149 54.6902C223.799 54.7702 223.359 54.1602 223.159 53.3402Z" fill="#DBDBDB"/>
<path d="M224.269 53.0705C224.639 54.5405 223.659 54.7805 223.319 53.3005C222.949 51.8305 223.919 51.5905 224.269 53.0705Z" fill="black"/>
<path d="M223.63 51.7004C222.46 51.3804 223.34 54.9704 224.15 54.6904C224.94 54.3704 224.3 51.9204 223.63 51.7004ZM224.17 54.2304C223.49 54.7504 222.9 52.1504 223.52 52.0604C224.17 52.0304 224.55 53.8804 224.17 54.2304Z" fill="#0271B0"/>
<path d="M217.579 55.9007C217.849 56.9507 216.199 57.3407 215.959 56.2907C215.689 55.2407 217.339 54.8407 217.579 55.9007Z" fill="#292220"/>
<path d="M217.209 55.9907C217.359 56.5607 216.449 56.7807 216.319 56.2107C216.179 55.6307 217.079 55.4107 217.209 55.9907Z" fill="black"/>
<path d="M218.92 53.4604C218.82 53.6104 215.93 54.8005 215.66 55.6505C215.66 55.6505 216.75 55.3104 218.96 54.8504C218.4 53.9304 218.92 53.4604 218.92 53.4604Z" fill="#999999"/>
<path d="M216.95 56.1802C217.24 57.3102 215.46 57.7402 215.2 56.6002C214.92 55.4802 216.7 55.0502 216.95 56.1802Z" fill="#0271B0"/>
<path d="M216.56 56.2801C216.72 56.9001 215.74 57.1401 215.6 56.5101C215.44 55.8901 216.42 55.6501 216.56 56.2801Z" fill="black"/>
<path d="M203.94 52.49C204.02 52.74 203.89 53.01 203.64 53.09C202.98 53.32 202.43 51.72 203.1 51.5C203.68 51.28 203.8 52.12 203.94 52.49Z" fill="#999999"/>
<path opacity="0.5" d="M203.59 51.6299L203 52.7699" stroke="white" stroke-width="0.0919" stroke-miterlimit="10"/>
<path opacity="0.5" d="M203.779 51.9399L203.199 53.0799" stroke="white" stroke-width="0.0919" stroke-miterlimit="10"/>
<path d="M203.94 52.49C204.02 52.74 203.89 53.01 203.64 53.09C202.98 53.32 202.43 51.72 203.1 51.5C203.68 51.28 203.8 52.12 203.94 52.49Z" stroke="#7A7A7A" stroke-width="0.1837" stroke-miterlimit="10"/>
<path d="M206.38 51.7698C206.47 52.0198 206.33 52.2898 206.08 52.3698C205.42 52.5998 204.87 50.9998 205.54 50.7798C206.12 50.5698 206.24 51.4098 206.38 51.7698Z" fill="#999999"/>
<path opacity="0.5" d="M206.03 50.9199L205.44 52.0599" stroke="white" stroke-width="0.0919" stroke-miterlimit="10"/>
<path opacity="0.5" d="M206.221 51.23L205.641 52.37" stroke="white" stroke-width="0.0919" stroke-miterlimit="10"/>
<path d="M206.38 51.7698C206.47 52.0198 206.33 52.2898 206.08 52.3698C205.42 52.5998 204.87 50.9998 205.54 50.7798C206.12 50.5698 206.24 51.4098 206.38 51.7698Z" stroke="#7A7A7A" stroke-width="0.1837" stroke-miterlimit="10"/>
<path d="M208.82 51.0598C208.9 51.3098 208.77 51.5799 208.52 51.6599C207.86 51.8899 207.31 50.2898 207.98 50.0698C208.56 49.8598 208.68 50.6998 208.82 51.0598Z" fill="#999999"/>
<path opacity="0.5" d="M208.47 50.21L207.88 51.35" stroke="white" stroke-width="0.0919" stroke-miterlimit="10"/>
<path opacity="0.5" d="M208.66 50.52L208.08 51.66" stroke="white" stroke-width="0.0919" stroke-miterlimit="10"/>
<path d="M208.82 51.0598C208.9 51.3098 208.77 51.5799 208.52 51.6599C207.86 51.8899 207.31 50.2898 207.98 50.0698C208.56 49.8598 208.68 50.6998 208.82 51.0598Z" stroke="#7A7A7A" stroke-width="0.1837" stroke-miterlimit="10"/>
<path d="M211.26 50.3499C211.35 50.5999 211.21 50.8699 210.96 50.9499C210.3 51.1799 209.75 49.5799 210.42 49.3599C211 49.1499 211.12 49.9899 211.26 50.3499Z" fill="#999999"/>
<path opacity="0.5" d="M210.9 49.5L210.32 50.64" stroke="white" stroke-width="0.0919" stroke-miterlimit="10"/>
<path opacity="0.5" d="M211.101 49.8101L210.521 50.9501" stroke="white" stroke-width="0.0919" stroke-miterlimit="10"/>
<path d="M211.26 50.3499C211.35 50.5999 211.21 50.8699 210.96 50.9499C210.3 51.1799 209.75 49.5799 210.42 49.3599C211 49.1499 211.12 49.9899 211.26 50.3499Z" stroke="#7A7A7A" stroke-width="0.1837" stroke-miterlimit="10"/>
<path d="M213.699 49.6399C213.779 49.8899 213.649 50.1599 213.399 50.2399C212.739 50.4699 212.189 48.8699 212.859 48.6499C213.439 48.4399 213.559 49.2799 213.699 49.6399Z" fill="#999999"/>
<path opacity="0.5" d="M213.34 48.79L212.76 49.93" stroke="white" stroke-width="0.0919" stroke-miterlimit="10"/>
<path opacity="0.5" d="M213.539 49.1001L212.949 50.2401" stroke="white" stroke-width="0.0919" stroke-miterlimit="10"/>
<path d="M213.699 49.6399C213.779 49.8899 213.649 50.1599 213.399 50.2399C212.739 50.4699 212.189 48.8699 212.859 48.6499C213.439 48.4399 213.559 49.2799 213.699 49.6399Z" stroke="#7A7A7A" stroke-width="0.1837" stroke-miterlimit="10"/>
<path d="M216.13 48.93C216.22 49.18 216.08 49.45 215.83 49.53C215.17 49.76 214.62 48.16 215.29 47.94C215.88 47.73 216 48.57 216.13 48.93Z" fill="#999999"/>
<path opacity="0.5" d="M215.78 48.0801L215.2 49.2101" stroke="white" stroke-width="0.0919" stroke-miterlimit="10"/>
<path opacity="0.5" d="M215.981 48.3901L215.391 49.5301" stroke="white" stroke-width="0.0919" stroke-miterlimit="10"/>
<path d="M216.13 48.93C216.22 49.18 216.08 49.45 215.83 49.53C215.17 49.76 214.62 48.16 215.29 47.94C215.88 47.73 216 48.57 216.13 48.93Z" stroke="#7A7A7A" stroke-width="0.1837" stroke-miterlimit="10"/>
<path d="M218.57 48.22C218.65 48.47 218.52 48.74 218.27 48.82C217.61 49.05 217.06 47.45 217.73 47.23C218.32 47.02 218.43 47.86 218.57 48.22Z" fill="#999999"/>
<path opacity="0.5" d="M218.22 47.3599L217.64 48.4999" stroke="white" stroke-width="0.0919" stroke-miterlimit="10"/>
<path opacity="0.5" d="M218.42 47.6802L217.83 48.8202" stroke="white" stroke-width="0.0919" stroke-miterlimit="10"/>
<path d="M218.57 48.22C218.65 48.47 218.52 48.74 218.27 48.82C217.61 49.05 217.06 47.45 217.73 47.23C218.32 47.02 218.43 47.86 218.57 48.22Z" stroke="#7A7A7A" stroke-width="0.1837" stroke-miterlimit="10"/>
<path d="M221.01 47.5102C221.09 47.7602 220.96 48.0302 220.71 48.1102C220.05 48.3402 219.5 46.7402 220.17 46.5202C220.75 46.3002 220.87 47.1502 221.01 47.5102Z" fill="#999999"/>
<path opacity="0.5" d="M220.66 46.6504L220.07 47.7904" stroke="white" stroke-width="0.0919" stroke-miterlimit="10"/>
<path opacity="0.5" d="M220.861 46.9702L220.271 48.1102" stroke="white" stroke-width="0.0919" stroke-miterlimit="10"/>
<path d="M221.01 47.5102C221.09 47.7602 220.96 48.0302 220.71 48.1102C220.05 48.3402 219.5 46.7402 220.17 46.5202C220.75 46.3002 220.87 47.1502 221.01 47.5102Z" stroke="#7A7A7A" stroke-width="0.1837" stroke-miterlimit="10"/>
<path d="M223.449 46.7998C223.529 47.0498 223.399 47.3198 223.149 47.3998C222.489 47.6298 221.939 46.0298 222.609 45.8098C223.189 45.5898 223.309 46.4398 223.449 46.7998Z" fill="#999999"/>
<path opacity="0.5" d="M223.1 45.9399L222.51 47.0799" stroke="white" stroke-width="0.0919" stroke-miterlimit="10"/>
<path opacity="0.5" d="M223.29 46.2598L222.71 47.3998" stroke="white" stroke-width="0.0919" stroke-miterlimit="10"/>
<path d="M223.449 46.7998C223.529 47.0498 223.399 47.3198 223.149 47.3998C222.489 47.6298 221.939 46.0298 222.609 45.8098C223.189 45.5898 223.309 46.4398 223.449 46.7998Z" stroke="#7A7A7A" stroke-width="0.1837" stroke-miterlimit="10"/>
<path d="M225.89 46.0901C225.97 46.3401 225.84 46.6102 225.59 46.6902C224.93 46.9202 224.38 45.3201 225.05 45.1001C225.63 44.8801 225.75 45.7201 225.89 46.0901Z" fill="#999999"/>
<path opacity="0.5" d="M225.54 45.23L224.95 46.37" stroke="white" stroke-width="0.0919" stroke-miterlimit="10"/>
<path opacity="0.5" d="M225.73 45.54L225.15 46.68" stroke="white" stroke-width="0.0919" stroke-miterlimit="10"/>
<path d="M225.89 46.0901C225.97 46.3401 225.84 46.6102 225.59 46.6902C224.93 46.9202 224.38 45.3201 225.05 45.1001C225.63 44.8801 225.75 45.7201 225.89 46.0901Z" stroke="#7A7A7A" stroke-width="0.1837" stroke-miterlimit="10"/>
<path d="M228.329 45.3699C228.409 45.6199 228.279 45.8899 228.029 45.9699C227.369 46.1999 226.819 44.5999 227.489 44.3799C228.069 44.1699 228.189 45.0099 228.329 45.3699Z" fill="#999999"/>
<path opacity="0.5" d="M227.97 44.52L227.39 45.66" stroke="white" stroke-width="0.0919" stroke-miterlimit="10"/>
<path opacity="0.5" d="M228.17 44.8301L227.59 45.9701" stroke="white" stroke-width="0.0919" stroke-miterlimit="10"/>
<path d="M228.329 45.3699C228.409 45.6199 228.279 45.8899 228.029 45.9699C227.369 46.1999 226.819 44.5999 227.489 44.3799C228.069 44.1699 228.189 45.0099 228.329 45.3699Z" stroke="#7A7A7A" stroke-width="0.1837" stroke-miterlimit="10"/>
<path d="M230.77 44.66C230.85 44.91 230.72 45.1799 230.47 45.2599C229.81 45.4899 229.26 43.8899 229.93 43.6699C230.51 43.4599 230.63 44.3 230.77 44.66Z" fill="#999999"/>
<path opacity="0.5" d="M230.41 43.8101L229.83 44.9501" stroke="white" stroke-width="0.0919" stroke-miterlimit="10"/>
<path opacity="0.5" d="M230.61 44.1201L230.02 45.2601" stroke="white" stroke-width="0.0919" stroke-miterlimit="10"/>
<path d="M230.77 44.66C230.85 44.91 230.72 45.1799 230.47 45.2599C229.81 45.4899 229.26 43.8899 229.93 43.6699C230.51 43.4599 230.63 44.3 230.77 44.66Z" stroke="#7A7A7A" stroke-width="0.1837" stroke-miterlimit="10"/>
<path d="M233.209 43.95C233.289 44.2 233.159 44.47 232.909 44.55C232.249 44.78 231.699 43.18 232.369 42.96C232.949 42.75 233.069 43.59 233.209 43.95Z" fill="#999999"/>
<path opacity="0.5" d="M232.85 43.1001L232.27 44.2401" stroke="white" stroke-width="0.0919" stroke-miterlimit="10"/>
<path opacity="0.5" d="M233.049 43.4102L232.459 44.5502" stroke="white" stroke-width="0.0919" stroke-miterlimit="10"/>
<path d="M233.209 43.95C233.289 44.2 233.159 44.47 232.909 44.55C232.249 44.78 231.699 43.18 232.369 42.96C232.949 42.75 233.069 43.59 233.209 43.95Z" stroke="#7A7A7A" stroke-width="0.1837" stroke-miterlimit="10"/>
<path d="M235.65 43.24C235.73 43.49 235.6 43.76 235.35 43.84C234.69 44.07 234.14 42.47 234.81 42.25C235.39 42.04 235.51 42.88 235.65 43.24Z" fill="#999999"/>
<path opacity="0.5" d="M235.29 42.3901L234.71 43.5301" stroke="white" stroke-width="0.0919" stroke-miterlimit="10"/>
<path opacity="0.5" d="M235.489 42.7002L234.899 43.8402" stroke="white" stroke-width="0.0919" stroke-miterlimit="10"/>
<path d="M235.65 43.24C235.73 43.49 235.6 43.76 235.35 43.84C234.69 44.07 234.14 42.47 234.81 42.25C235.39 42.04 235.51 42.88 235.65 43.24Z" stroke="#7A7A7A" stroke-width="0.1837" stroke-miterlimit="10"/>
<path d="M238.079 42.5301C238.159 42.7801 238.029 43.0501 237.779 43.1301C237.119 43.3601 236.569 41.7601 237.239 41.5401C237.819 41.3301 237.939 42.1701 238.079 42.5301Z" fill="#999999"/>
<path opacity="0.5" d="M237.73 41.6802L237.14 42.8102" stroke="white" stroke-width="0.0919" stroke-miterlimit="10"/>
<path opacity="0.5" d="M237.93 41.9902L237.34 43.1302" stroke="white" stroke-width="0.0919" stroke-miterlimit="10"/>
<path d="M238.079 42.5301C238.159 42.7801 238.029 43.0501 237.779 43.1301C237.119 43.3601 236.569 41.7601 237.239 41.5401C237.819 41.3301 237.939 42.1701 238.079 42.5301Z" stroke="#7A7A7A" stroke-width="0.1837" stroke-miterlimit="10"/>
<path d="M240.52 41.8201C240.6 42.0701 240.47 42.3401 240.22 42.4201C239.56 42.6501 239.01 41.0501 239.68 40.8301C240.26 40.6201 240.38 41.4601 240.52 41.8201Z" fill="#999999"/>
<path opacity="0.5" d="M240.17 40.96L239.58 42.1" stroke="white" stroke-width="0.0919" stroke-miterlimit="10"/>
<path opacity="0.5" d="M240.369 41.2803L239.779 42.4203" stroke="white" stroke-width="0.0919" stroke-miterlimit="10"/>
<path d="M240.52 41.8201C240.6 42.0701 240.47 42.3401 240.22 42.4201C239.56 42.6501 239.01 41.0501 239.68 40.8301C240.26 40.6201 240.38 41.4601 240.52 41.8201Z" stroke="#7A7A7A" stroke-width="0.1837" stroke-miterlimit="10"/>
<path d="M242.959 41.1101C243.039 41.3601 242.909 41.6301 242.659 41.7101C241.999 41.9401 241.449 40.3401 242.119 40.1201C242.699 39.9101 242.819 40.7501 242.959 41.1101Z" fill="#999999"/>
<path opacity="0.5" d="M242.61 40.25L242.02 41.39" stroke="white" stroke-width="0.0919" stroke-miterlimit="10"/>
<path opacity="0.5" d="M242.799 40.5703L242.219 41.7103" stroke="white" stroke-width="0.0919" stroke-miterlimit="10"/>
<path d="M242.959 41.1101C243.039 41.3601 242.909 41.6301 242.659 41.7101C241.999 41.9401 241.449 40.3401 242.119 40.1201C242.699 39.9101 242.819 40.7501 242.959 41.1101Z" stroke="#7A7A7A" stroke-width="0.1837" stroke-miterlimit="10"/>
<path d="M245.4 40.4002C245.48 40.6502 245.35 40.9202 245.1 41.0002C244.44 41.2302 243.89 39.6302 244.56 39.4102C245.14 39.1902 245.26 40.0302 245.4 40.4002Z" fill="#999999"/>
<path opacity="0.5" d="M245.05 39.54L244.46 40.68" stroke="white" stroke-width="0.0919" stroke-miterlimit="10"/>
<path opacity="0.5" d="M245.24 39.8604L244.66 41.0004" stroke="white" stroke-width="0.0919" stroke-miterlimit="10"/>
<path d="M245.4 40.4002C245.48 40.6502 245.35 40.9202 245.1 41.0002C244.44 41.2302 243.89 39.6302 244.56 39.4102C245.14 39.1902 245.26 40.0302 245.4 40.4002Z" stroke="#7A7A7A" stroke-width="0.1837" stroke-miterlimit="10"/>
<path d="M247.84 39.6899C247.92 39.9399 247.79 40.2099 247.54 40.2899C246.88 40.5199 246.33 38.9199 247 38.6999C247.58 38.4799 247.7 39.3299 247.84 39.6899Z" fill="#999999"/>
<path opacity="0.5" d="M247.48 38.8301L246.9 39.9701" stroke="white" stroke-width="0.0919" stroke-miterlimit="10"/>
<path opacity="0.5" d="M247.68 39.1499L247.1 40.2799" stroke="white" stroke-width="0.0919" stroke-miterlimit="10"/>
<path d="M247.84 39.6899C247.92 39.9399 247.79 40.2099 247.54 40.2899C246.88 40.5199 246.33 38.9199 247 38.6999C247.58 38.4799 247.7 39.3299 247.84 39.6899Z" stroke="#7A7A7A" stroke-width="0.1837" stroke-miterlimit="10"/>
<path d="M250.28 38.97C250.36 39.22 250.23 39.49 249.98 39.57C249.32 39.8 248.77 38.2 249.44 37.98C250.02 37.77 250.14 38.61 250.28 38.97Z" fill="#999999"/>
<path opacity="0.5" d="M249.92 38.1201L249.34 39.2601" stroke="white" stroke-width="0.0919" stroke-miterlimit="10"/>
<path opacity="0.5" d="M250.119 38.4302L249.529 39.5702" stroke="white" stroke-width="0.0919" stroke-miterlimit="10"/>
<path d="M250.28 38.97C250.36 39.22 250.23 39.49 249.98 39.57C249.32 39.8 248.77 38.2 249.44 37.98C250.02 37.77 250.14 38.61 250.28 38.97Z" stroke="#7A7A7A" stroke-width="0.1837" stroke-miterlimit="10"/>
<path d="M262.12 37.6402C261.86 37.3802 261.57 37.1402 261.27 36.9302C260.44 37.4502 260.54 38.8102 261.45 39.1802C262.52 38.3502 262.12 37.6402 262.12 37.6402Z" fill="#1D2336"/>
<path d="M232.86 46.1704L216.59 50.7804L196.59 62.2504L208.1 59.4604L232.86 46.1704Z" fill="#1D2336"/>
<path d="M181.93 55.4903C181.93 55.4903 175.05 45.8303 175.2 45.7903C175.35 45.7503 179.28 44.5503 179.28 44.5503L194.18 50.7303L181.93 55.4903Z" fill="#1D2336"/>
<path d="M253.77 36.5503C253.21 36.8803 252.77 36.9903 252.76 36.9903L253.28 38.5703C254.1 38.4403 254.77 38.1703 255.31 37.8303C254.77 37.4303 254.28 37.0303 253.77 36.5503Z" fill="#999999"/>
<path d="M255.41 34.9702C254.96 35.6702 254.41 36.1402 253.93 36.4502C254.44 36.9002 254.93 37.3002 255.46 37.7302C256.66 36.9102 257.17 35.7702 257.35 35.2602C256.68 35.1102 256.01 35.0202 255.41 34.9702Z" fill="#999999"/>
<path opacity="0.5" d="M253.2 36.8901L254.05 38.3701" stroke="white" stroke-width="0.0919" stroke-miterlimit="10"/>
<path opacity="0.5" d="M255.239 35.3203L257.049 35.8803" stroke="white" stroke-width="0.0919" stroke-miterlimit="10" stroke-linecap="round"/>
<path opacity="0.5" d="M254.84 35.7603L256.58 36.5602" stroke="white" stroke-width="0.0919" stroke-miterlimit="10" stroke-linecap="round"/>
<path opacity="0.5" d="M254.46 36.1104L256.13 37.0903" stroke="white" stroke-width="0.0919" stroke-miterlimit="10" stroke-linecap="round"/>
<path opacity="0.5" d="M253.56 36.7202L254.56 38.1702" stroke="white" stroke-width="0.0919" stroke-miterlimit="10" stroke-linecap="round"/>
<path d="M253.77 36.5503C253.21 36.8803 252.77 36.9903 252.76 36.9903L253.28 38.5703C254.1 38.4403 254.77 38.1703 255.31 37.8303C254.77 37.4303 254.28 37.0303 253.77 36.5503ZM253.34 38.5103L252.85 37.0403C252.86 37.0403 253.24 36.9403 253.76 36.6303C254.24 37.0703 254.69 37.4503 255.19 37.8303C254.69 38.1403 254.11 38.3803 253.34 38.5103Z" fill="#7A7A7A"/>
<path d="M255.41 34.9702C254.96 35.6702 254.41 36.1402 253.93 36.4502C254.44 36.9002 254.93 37.3002 255.46 37.7302C256.66 36.9102 257.17 35.7702 257.35 35.2602C256.68 35.1102 256.01 35.0202 255.41 34.9702ZM255.48 37.6402C254.97 37.2302 254.52 36.8902 254.03 36.4602C254.49 36.1602 255.01 35.7002 255.44 35.0302C256.01 35.0802 256.63 35.1602 257.28 35.3102C257.11 35.8002 256.62 36.8602 255.48 37.6402Z" fill="#7A7A7A"/>
<path d="M216.749 28.4001C216.749 28.4001 215.119 22.0301 208.349 24.3501C205.729 18.8401 196.579 20.0901 194.259 24.8001C194.259 24.8001 188.819 23.7901 188.819 28.4301C189.969 28.4101 215.549 28.4401 216.749 28.4001Z" fill="white"/>
<path d="M250.82 70.6003C250.82 70.6003 249.19 64.2303 242.42 66.5503C239.8 61.0403 230.65 62.2903 228.33 67.0003C228.33 67.0003 222.89 65.9903 222.89 70.6303C224.04 70.6103 249.63 70.6403 250.82 70.6003Z" fill="white"/>
<path d="M195.449 77.0403H210.119C210.119 77.0403 207.329 72.3403 203.149 74.6603C203.019 71.5803 195.769 70.8103 195.449 77.0403Z" fill="white"/>
<path d="M229.52 32.4401H244.19C244.19 32.4401 241.4 27.7401 237.22 30.0601C237.1 26.9801 229.85 26.2001 229.52 32.4401Z" fill="white"/>
<path d="M393.8 103.28C392.71 167.33 297.43 167.32 296.34 103.28C297.44 39.2303 392.72 39.2403 393.8 103.28Z" fill="#300C0C"/>
<path d="M308.46 116.081C306.22 115.471 306.19 114.361 308.4 113.621L340.34 102.911C345.82 100.171 375.97 106.161 382.09 106.391C384.39 106.681 384.48 107.611 382.3 108.461C376.16 109.771 342.03 126.721 336.09 123.601C336.08 123.601 308.46 116.081 308.46 116.081Z" fill="#FDC453"/>
<path d="M307.88 114.301L307.75 104.621C347.77 92.2007 340.53 92.5107 382.21 97.6007L382.4 107.421L340.67 123.171L307.88 114.301Z" fill="white"/>
<path d="M340.66 123.171C340.47 121.471 340.43 119.761 340.38 118.061C340.37 116.351 340.35 114.651 340.48 112.941C340.67 114.641 340.71 116.351 340.76 118.051C340.77 119.761 340.79 121.461 340.66 123.171Z" fill="#300C0C"/>
<path d="M381.65 96.6407C375.3 96.4307 345.84 91.0907 340.18 93.5207L308.45 103.121C304.76 103.671 306.59 113.231 306.77 114.961C307.27 114.641 307.51 114.481 307.88 114.301L307.79 105.141C309.45 105.271 332.83 111.901 340.5 112.781C348.16 109.571 391.17 97.2507 381.65 96.6407Z" fill="#FDC453"/>
<path d="M345.39 95.4507L367.66 97.8507L353.36 102.031L334.57 99.1207L345.39 95.4507Z" fill="white"/>
<path d="M316.47 101.791C308.37 100.301 343.7 91.4506 342.98 90.8406C347.54 88.5606 372.61 93.5506 377.69 93.7306C379.6 93.9706 379.68 94.7506 377.86 95.4506C372.75 96.5406 344.37 110.641 339.43 108.041C339.44 108.041 316.47 101.791 316.47 101.791Z" fill="#EC000A"/>
<path d="M315.99 100.311L315.88 92.2605C349.16 81.9305 343.13 82.1906 377.79 86.4206L377.95 94.5906L343.25 107.691L315.99 100.311Z" fill="white"/>
<path d="M343.25 107.68C343.09 106.26 343.06 104.85 343.02 103.43C343.01 102.01 343 100.59 343.11 99.1704C343.27 100.59 343.3 102 343.34 103.42C343.34 104.84 343.36 106.26 343.25 107.68Z" fill="#300C0C"/>
<path d="M377.33 85.6205C372.05 85.4405 347.55 81.0105 342.84 83.0305L316.45 91.0105C313.38 91.4705 314.91 99.4205 315.05 100.861C315.46 100.601 315.67 100.46 315.98 100.31L315.91 92.7005C317.29 92.8105 336.73 98.3205 343.11 99.0505C349.6 96.3205 385.07 86.2005 377.33 85.6205Z" fill="#EC000A"/>
<path d="M347.18 84.6304L365.7 86.6304L353.81 90.1004L338.19 87.6804L347.18 84.6304Z" fill="white"/>
<path d="M440.51 220.46C439.42 284.51 344.14 284.5 343.05 220.46C344.14 156.41 439.42 156.42 440.51 220.46Z" fill="#300C0C"/>
<mask id="mask2_946_6130" style="mask-type:luminance" maskUnits="userSpaceOnUse" x="343" y="172" width="98" height="97">
<path d="M440.51 220.46C439.42 284.51 344.14 284.5 343.05 220.46C344.14 156.41 439.42 156.42 440.51 220.46Z" fill="white"/>
</mask>
<g mask="url(#mask2_946_6130)">
<path d="M323.13 177.84C367.12 175.5 397.09 226.14 442.33 224.96" stroke="white" stroke-width="0.4353" stroke-miterlimit="10" stroke-linecap="round"/>
<path d="M321.529 185.6C365.409 181.71 397.179 231.19 442.339 228.42" stroke="white" stroke-width="0.4353" stroke-miterlimit="10" stroke-linecap="round"/>
<path d="M320.209 193.4C363.919 187.96 397.439 236.23 442.469 231.87" stroke="white" stroke-width="0.4353" stroke-miterlimit="10" stroke-linecap="round"/>
<path d="M319.17 201.22C362.66 194.24 397.88 241.25 442.72 235.31" stroke="white" stroke-width="0.4353" stroke-miterlimit="10" stroke-linecap="round"/>
<path d="M318.409 209.08C361.629 200.56 398.499 246.28 443.099 238.75" stroke="white" stroke-width="0.4353" stroke-miterlimit="10" stroke-linecap="round"/>
<path d="M317.93 216.95C360.82 206.89 399.29 251.28 443.59 242.18" stroke="white" stroke-width="0.4353" stroke-miterlimit="10" stroke-linecap="round"/>
<path d="M317.729 224.83C360.239 213.25 400.259 256.25 444.209 245.59" stroke="white" stroke-width="0.4353" stroke-miterlimit="10" stroke-linecap="round"/>
<path d="M317.81 232.71C359.88 219.62 401.41 261.2 444.96 248.98" stroke="white" stroke-width="0.4353" stroke-miterlimit="10" stroke-linecap="round"/>
<path d="M411.269 240.22C411.189 243.86 410.799 247.5 410.079 251.07C409.269 249.71 406.559 250.34 406.639 251.94C410.889 258.38 411.469 244.98 411.639 242.33C413.889 241.88 416.139 241.33 418.379 240.68C418.299 244.32 417.949 247.95 417.319 251.54C416.339 249.96 413.739 251.2 413.849 252.89C418.259 260.04 418.769 243.48 418.829 240.95C418.849 239.98 418.859 239.01 418.849 238.03C416.329 238.89 413.799 239.62 411.269 240.22Z" fill="#D5DCF0"/>
<path d="M415.74 217.93C414.43 219.64 412.92 221.22 411.28 222.59C408.58 217.14 407.32 229.17 415.18 219.1C416.46 219.86 417.78 220.54 419.13 221.15C417.79 222.91 416.3 224.54 414.67 226.01C411.74 220.6 410.11 233.77 419.25 221.47C419.61 221 419.96 220.52 420.29 220.03C418.74 219.43 417.22 218.72 415.74 217.93Z" fill="#D5DCF0"/>
<path d="M359.06 214.4C360.46 216.54 361.6 218.75 362.6 221.18C357.44 224.27 367.87 227.3 360.03 215.34C360.89 213.71 361.71 212.03 362.5 210.3C363.86 212.43 365.07 214.74 366.11 217.18C360.84 220.36 372.26 224.44 362.81 210.19C362.45 209.62 362.07 209.06 361.69 208.51C360.85 210.52 359.98 212.49 359.06 214.4Z" fill="#D5DCF0"/>
<path d="M363.149 185.89C362.799 189.53 362.169 193.17 361.299 196.71C355.159 192.25 360.859 210.04 363.289 188.01C365.189 187.59 367.099 187.07 368.999 186.45C368.629 190.13 368.039 193.78 367.229 197.36C360.939 192.9 366.779 212.87 369.339 186.73C369.439 185.75 369.529 184.76 369.599 183.78C367.449 184.6 365.299 185.31 363.149 185.89Z" fill="#D5DCF0"/>
<path d="M386.58 187.94C385.53 187.2 385.85 193.35 384.87 195.7C384.21 198.66 383.21 201.16 383.23 201.16C382.59 199.38 379.33 199.55 379.09 201.43C382.8 210.2 386.14 193.89 386.33 190.6C386.33 190.6 386.51 189.03 386.58 187.94Z" fill="#D5DCF0"/>
<path d="M437.579 239.21C436.979 238.23 435.349 242.91 433.819 244.33C432.369 246.29 430.759 247.79 430.779 247.79C425.109 239.58 425.489 259.62 436.579 241.07C436.579 241.07 437.209 239.98 437.579 239.21Z" fill="#D5DCF0"/>
<path d="M390.43 211.48C390.49 211.36 390.24 211.18 390.17 211.32C389.95 212.25 386.53 216.99 385.85 217.36C382.8 211.19 382.21 225.51 389.72 212.8C389.73 212.8 390.16 212.03 390.43 211.48Z" fill="#D5DCF0"/>
<path d="M409.929 228.39C409.259 228.58 410.389 231.07 410.209 232.7C410.299 234.35 410.129 235.82 410.139 235.81C404.379 234.4 412.359 243.83 410.199 229.8C410.209 229.8 410.069 228.96 409.929 228.39Z" fill="#D5DCF0"/>
<path d="M433.279 223.01C432.799 221.42 430.499 219.3 430.319 217.96C430.449 220.15 430.429 222.34 430.249 224.52C430.249 224.52 430.259 224.52 430.269 224.51C430.059 227.21 429.609 229.88 428.929 232.52C427.889 230.76 424.129 231.58 424.139 233.58C424.089 234.68 425.129 235.71 426.539 235.78C431.129 235.02 429.969 227.81 430.899 224.28C431.749 224.09 433.669 224.72 432.189 231.14C432.269 231.2 434.139 225.35 433.279 223.01Z" fill="#D5DCF0"/>
<path d="M377.32 213.71C376.9 211.66 374.69 208.85 374.61 207.21C374.63 209.99 374.5 212.76 374.23 215.51C374.23 215.51 374.24 215.51 374.25 215.5C373.92 218.9 373.37 222.27 372.61 225.57C371.56 223.24 367.83 224.22 367.79 226.68C367.71 228.05 368.71 229.4 370.12 229.57C375.02 228.5 373.71 219.35 374.89 215.25C375.75 215.04 377.62 215.92 375.91 224C375.99 224.05 378.06 216.71 377.32 213.71Z" fill="#D5DCF0"/>
<path d="M398.76 224.26C398.47 224.18 398.18 224.14 397.89 224.13C397.98 222.03 398.04 219.94 398.07 217.85C399 217.04 400.02 216.12 400.72 215.07C400.7 215.11 400.67 215.15 400.65 215.18C410 198.32 396.62 188.26 397.51 213.87C394.63 216.62 391.67 219.14 389.63 222.75C386.84 228.27 388.22 238.83 396.15 239.18C395.87 241.68 395.61 245.05 395.19 247.69C394.35 252.24 389.39 251.89 388.51 247.98C392.15 250.34 393.96 242.68 390.66 241.6C385.16 240.52 387.12 250.15 390.38 251.53C396.52 253.04 396.25 243.18 396.79 239.09C402.95 238.21 404.87 225.88 398.76 224.26ZM399.15 205.19C403.34 196.84 404.72 209.5 398.18 213.04C397.93 210.39 398.52 207.75 399.15 205.19ZM389.54 231.66C388.72 225.78 393.58 221.82 397.46 218.37C397.43 220.29 397.37 222.22 397.27 224.16C392.37 224.69 390.95 232.81 394.52 235.92C392.61 233.48 393.79 228.18 397.05 227.95C396.82 231.46 396.55 234.99 396.21 238.56C394.14 238.83 390.46 237.94 389.54 231.66ZM399.22 237.09C399.22 237.09 398.25 238.05 396.85 238.43C397.2 234.94 397.49 231.43 397.69 227.97C401.49 228.55 401.64 234.86 399.22 237.09Z" fill="#D5DCF0"/>
</g>
</svg>
